<svg width="25" height="24" viewBox="0 0 25 24" fill="none" xmlns="http://www.w3.org/2000/svg">
<circle opacity="0.32" cx="12.7742" cy="12" r="11.5" stroke="white"/>
<g clip-path="url(#clip0_1_157)">
<path d="M18.5777 17.0349V17.0344H18.5804V13.0593C18.5804 11.1147 18.1618 9.6167 15.8883 9.6167C14.7954 9.6167 14.062 10.2164 13.7626 10.785H13.731V9.79825H11.5754V17.0344H13.82V13.4513C13.82 12.5079 13.9988 11.5957 15.1671 11.5957C16.3183 11.5957 16.3354 12.6723 16.3354 13.5119V17.0349H18.5777Z" fill="white"/>
<path d="M7.9209 9.79834H10.1681V17.0345H7.9209V9.79834Z" fill="white"/>
<path d="M9.04398 6.19336C8.32546 6.19336 7.74243 6.77639 7.74243 7.49491C7.74243 8.21342 8.32546 8.80865 9.04398 8.80865C9.7625 8.80865 10.3455 8.21342 10.3455 7.49491C10.3451 6.77639 9.76204 6.19336 9.04398 6.19336V6.19336Z" fill="white"/>
</g>
<defs>
<clipPath id="clip0_1_157">
<rect width="10.8387" height="10.8387" fill="white" transform="translate(7.74243 6.19336)"/>
</clipPath>
</defs>
</svg>
