<svg width="93" height="312" viewBox="0 0 93 312" fill="none" xmlns="http://www.w3.org/2000/svg">
<path d="M3.888 288.744L4.34296 288.951L4.34408 288.949L3.888 288.744ZM21.072 283.656L21.3442 283.237L21.3409 283.234L21.072 283.656ZM25.296 288.744L25.7535 288.542L25.7521 288.539L25.296 288.744ZM26.736 303.24L26.236 303.24L26.236 303.74L26.736 303.74L26.736 303.24ZM36 303.24L36.5 303.24L36.5 302.74L36 302.74L36 303.24ZM36 311.016L36 311.516L36.5 311.516L36.5 311.016L36 311.016ZM2.4 311.016L1.9 311.016L1.9 311.516L2.4 311.516L2.4 311.016ZM18.912 291.576L19.2995 291.26L19.2945 291.254L18.912 291.576ZM10.272 291.576L10.6545 291.898L10.6594 291.892L10.272 291.576ZM8.736 303.24L8.236 303.24L8.236 303.74L8.736 303.74L8.736 303.24ZM20.4 303.24L20.4 303.74L20.9 303.74L20.9 303.24L20.4 303.24ZM2.9 296.472C2.9 293.551 3.38696 291.048 4.34295 288.951L3.43304 288.537C2.40503 290.792 1.9 293.441 1.9 296.472L2.9 296.472ZM4.34408 288.949C5.3013 286.818 6.6498 285.201 8.38423 284.075L7.83976 283.237C5.92619 284.479 4.4587 286.254 3.43191 288.539L4.34408 288.949ZM8.38423 284.075C10.1157 282.951 12.178 282.38 14.592 282.38L14.592 281.38C12.014 281.38 9.75628 281.993 7.83976 283.237L8.38423 284.075ZM14.592 282.38C16.9724 282.38 19.0368 282.951 20.8031 284.078L21.3409 283.234C19.3952 281.993 17.1396 281.38 14.592 281.38L14.592 282.38ZM20.7998 284.075C22.5342 285.201 23.8827 286.818 24.8399 288.949L25.7521 288.539C24.7253 286.254 23.2578 284.479 21.3442 283.237L20.7998 284.075ZM24.8385 288.946C25.7644 291.044 26.236 293.549 26.236 296.472L27.236 296.472C27.236 293.443 26.7476 290.796 25.7535 288.542L24.8385 288.946ZM26.236 296.472L26.236 303.24L27.236 303.24L27.236 296.472L26.236 296.472ZM26.736 303.74L36 303.74L36 302.74L26.736 302.74L26.736 303.74ZM35.5 303.24L35.5 311.016L36.5 311.016L36.5 303.24L35.5 303.24ZM36 310.516L2.4 310.516L2.4 311.516L36 311.516L36 310.516ZM2.9 311.016L2.9 296.472L1.9 296.472L1.9 311.016L2.9 311.016ZM20.9 296.904C20.9 294.507 20.3924 292.6 19.2994 291.26L18.5246 291.892C19.4156 292.984 19.9 294.629 19.9 296.904L20.9 296.904ZM19.2945 291.254C18.1591 289.906 16.568 289.252 14.592 289.252L14.592 290.252C16.3279 290.252 17.6169 290.814 18.5295 291.898L19.2945 291.254ZM14.592 289.252C12.5875 289.252 10.991 289.904 9.88457 291.26L10.6594 291.892C11.537 290.816 12.8205 290.252 14.592 290.252L14.592 289.252ZM9.88954 291.254C8.76099 292.594 8.236 294.504 8.236 296.904L9.236 296.904C9.236 294.632 9.735 292.99 10.6545 291.898L9.88954 291.254ZM8.236 296.904L8.236 303.24L9.236 303.24L9.236 296.904L8.236 296.904ZM8.736 303.74L20.4 303.74L20.4 302.74L8.736 302.74L8.736 303.74ZM20.9 303.24L20.9 296.904L19.9 296.904L19.9 303.24L20.9 303.24ZM25.2 249.831L25.7 249.831L25.7 249.368L25.2383 249.333L25.2 249.831ZM25.2 269.367L24.7 269.367L24.7 269.989L25.3074 269.856L25.2 269.367ZM28.992 266.871L28.5838 266.583L28.992 266.871ZM29.808 258.423L30.2762 258.248L30.2732 258.24L29.808 258.423ZM27.888 255.495L27.549 255.128L27.1732 255.474L27.5281 255.842L27.888 255.495ZM32.208 251.511L32.5369 251.135L32.1989 250.84L31.869 251.144L32.208 251.511ZM34.704 269.895L35.1487 270.124L35.1512 270.119L34.704 269.895ZM29.952 275.079L30.2102 275.508L29.952 275.079ZM16.272 275.127L16.0167 275.557L16.0188 275.559L16.272 275.127ZM11.52 270.183L11.9602 269.946L11.9589 269.944L11.52 270.183ZM11.424 256.263L10.9824 256.029L11.424 256.263ZM16.128 251.463L16.3732 251.899L16.3812 251.895L16.128 251.463ZM16.896 267.351L16.5119 267.671L16.5119 267.671L16.896 267.351ZM20.832 269.463L20.756 269.958L21.332 270.046L21.332 269.463L20.832 269.463ZM20.832 256.743L21.332 256.743L21.332 256.159L20.7545 256.249L20.832 256.743ZM16.944 258.855L17.3229 259.182L17.3281 259.175L16.944 258.855ZM23.184 250.187C23.1821 250.187 23.1917 250.187 23.222 250.189C23.2491 250.19 23.2858 250.192 23.3328 250.195C23.4266 250.201 23.5569 250.21 23.7244 250.222C24.059 250.246 24.5379 250.282 25.1616 250.33L25.2383 249.333C24.0089 249.238 23.3053 249.187 23.184 249.187L23.184 250.187ZM24.7 249.831L24.7 269.367L25.7 269.367L25.7 249.831L24.7 249.831ZM25.3074 269.856C27.0264 269.478 28.3988 268.576 29.4002 267.16L28.5838 266.583C27.7292 267.791 26.5736 268.553 25.0926 268.879L25.3074 269.856ZM29.4002 267.16C30.3998 265.747 30.884 264.008 30.884 261.975L29.884 261.975C29.884 263.847 29.4402 265.372 28.5838 266.583L29.4002 267.16ZM30.884 261.975C30.884 260.585 30.6854 259.339 30.2762 258.248L29.3398 258.599C29.6986 259.556 29.884 260.678 29.884 261.975L30.884 261.975ZM30.2732 258.24C29.831 257.117 29.153 256.087 28.2479 255.148L27.5281 255.842C28.351 256.696 28.953 257.617 29.3428 258.607L30.2732 258.24ZM28.227 255.863L32.547 251.879L31.869 251.144L27.549 255.128L28.227 255.863ZM31.8791 251.888C34.5269 254.201 35.884 257.599 35.884 262.167L36.884 262.167C36.884 257.392 35.4571 253.686 32.5369 251.135L31.8791 251.888ZM35.884 262.167C35.884 265.014 35.3368 267.512 34.2568 269.672L35.1512 270.119C36.3112 267.799 36.884 265.144 36.884 262.167L35.884 262.167ZM34.2594 269.667C33.1467 271.83 31.6247 273.487 29.6938 274.651L30.2102 275.508C32.3113 274.24 33.9573 272.441 35.1486 270.124L34.2594 269.667ZM29.6938 274.651C27.7624 275.816 25.5652 276.403 23.088 276.403L23.088 277.403C25.7308 277.403 28.1096 276.775 30.2102 275.508L29.6938 274.651ZM23.088 276.403C20.6415 276.403 18.4582 275.832 16.5252 274.696L16.0188 275.559C18.1178 276.791 20.4784 277.403 23.088 277.403L23.088 276.403ZM16.5273 274.697C14.5566 273.527 13.0368 271.946 11.9602 269.946L11.0798 270.42C12.2431 272.581 13.8914 274.295 16.0167 275.557L16.5273 274.697ZM11.9589 269.944C10.8501 267.911 10.292 265.642 10.292 263.127L9.292 263.127C9.292 265.796 9.88592 268.232 11.081 270.423L11.9589 269.944ZM10.292 263.127C10.292 260.674 10.8193 258.467 11.8656 256.498L10.9824 256.029C9.85268 258.155 9.292 260.525 9.292 263.127L10.292 263.127ZM11.8656 256.498C12.908 254.536 14.4073 253.005 16.3731 251.899L15.8829 251.028C13.7527 252.226 12.1159 253.895 10.9824 256.029L11.8656 256.498ZM16.3812 251.895C18.3096 250.762 20.5715 250.187 23.184 250.187L23.184 249.187C20.4205 249.187 17.9784 249.797 15.8748 251.032L16.3812 251.895ZM14.956 263.079C14.956 264.876 15.4672 266.418 16.5119 267.671L17.2801 267.031C16.4048 265.981 15.956 264.675 15.956 263.079L14.956 263.079ZM16.5119 267.671C17.5596 268.929 18.9873 269.685 20.756 269.958L20.908 268.969C19.3487 268.729 18.1524 268.078 17.2801 267.031L16.5119 267.671ZM21.332 269.463L21.332 256.743L20.332 256.743L20.332 269.463L21.332 269.463ZM20.7545 256.249C19.0157 256.522 17.6057 257.28 16.5599 258.535L17.3281 259.175C18.2023 258.126 19.3843 257.477 20.9095 257.237L20.7545 256.249ZM16.5651 258.529C15.4874 259.781 14.956 261.308 14.956 263.079L15.956 263.079C15.956 261.523 16.4166 260.234 17.3229 259.182L16.5651 258.529ZM13.584 235.63L13.584 236.13L15.1378 236.13L13.8756 235.224L13.584 235.63ZM10.752 232.03L10.2904 232.222L10.2919 232.226L10.752 232.03ZM9.792 226.75L9.792 226.25L9.292 226.25L9.292 226.75L9.792 226.75ZM16.704 226.75L17.2025 226.788L17.2439 226.25L16.704 226.25L16.704 226.75ZM18.432 233.47L18.7903 233.121L18.7855 233.117L18.432 233.47ZM36 235.294L36.5 235.294L36.5 234.794L36 234.794L36 235.294ZM36 242.782L36 243.282L36.5 243.282L36.5 242.782L36 242.782ZM10.176 242.782L9.676 242.782L9.676 243.282L10.176 243.282L10.176 242.782ZM10.176 235.63L10.176 235.13L9.676 235.13L9.676 235.63L10.176 235.63ZM13.8756 235.224C12.7068 234.385 11.8186 233.26 11.2121 231.834L10.2919 232.226C10.9654 233.809 11.9652 235.083 13.2924 236.036L13.8756 235.224ZM11.2135 231.838C10.6033 230.373 10.292 228.681 10.292 226.75L9.292 226.75C9.292 228.788 9.62068 230.615 10.2905 232.222L11.2135 231.838ZM9.792 227.25L16.704 227.25L16.704 226.25L9.792 226.25L9.792 227.25ZM16.2055 226.712C16.1417 227.541 16.108 228.12 16.108 228.43L17.108 228.43C17.108 228.164 17.1383 227.623 17.2025 226.788L16.2055 226.712ZM16.108 228.43C16.108 230.672 16.7468 232.492 18.0784 233.824L18.7855 233.117C17.6852 232.016 17.108 230.476 17.108 228.43L16.108 228.43ZM18.0738 233.819C19.3852 235.166 21.3298 235.794 23.808 235.794L23.808 234.794C21.4862 234.794 19.8468 234.206 18.7902 233.121L18.0738 233.819ZM23.808 235.794L36 235.794L36 234.794L23.808 234.794L23.808 235.794ZM35.5 235.294L35.5 242.782L36.5 242.782L36.5 235.294L35.5 235.294ZM36 242.282L10.176 242.282L10.176 243.282L36 243.282L36 242.282ZM10.676 242.782L10.676 235.63L9.676 235.63L9.676 242.782L10.676 242.782ZM10.176 236.13L13.584 236.13L13.584 235.13L10.176 235.13L10.176 236.13ZM10.752 211.982L10.752 212.482L11.252 212.482L11.252 211.982L10.752 211.982ZM10.752 205.358L10.752 204.858L10.252 204.858L10.252 205.358L10.752 205.358ZM16.512 205.358L17.012 205.358L17.012 204.858L16.512 204.858L16.512 205.358ZM16.512 211.79L16.012 211.79L16.012 212.29L16.512 212.29L16.512 211.79ZM36 211.79L36.5 211.79L36.5 211.29L36 211.29L36 211.79ZM36 219.278L36 219.778L36.5 219.778L36.5 219.278L36 219.278ZM16.512 219.278L16.512 218.778L16.012 218.778L16.012 219.278L16.512 219.278ZM16.512 223.262L16.512 223.762L17.012 223.762L17.012 223.262L16.512 223.262ZM10.752 223.262L10.252 223.262L10.252 223.762L10.752 223.762L10.752 223.262ZM10.752 219.278L11.252 219.278L11.252 218.778L10.752 218.778L10.752 219.278ZM2.59199 216.686L2.2352 217.037L2.23844 217.04L2.59199 216.686ZM0.383993 206.126L0.868132 206.251L0.870456 206.242L0.872443 206.233L0.383993 206.126ZM1.39199 203.582L1.56253 203.112L1.19364 202.978L0.975969 203.305L1.39199 203.582ZM6.81599 205.55L7.2249 205.838L7.6012 205.303L6.98653 205.08L6.81599 205.55ZM11.252 211.982L11.252 205.358L10.252 205.358L10.252 211.982L11.252 211.982ZM10.752 205.858L16.512 205.858L16.512 204.858L10.752 204.858L10.752 205.858ZM16.012 205.358L16.012 211.79L17.012 211.79L17.012 205.358L16.012 205.358ZM16.512 212.29L36 212.29L36 211.29L16.512 211.29L16.512 212.29ZM35.5 211.79L35.5 219.278L36.5 219.278L36.5 211.79L35.5 211.79ZM36 218.778L16.512 218.778L16.512 219.778L36 219.778L36 218.778ZM16.012 219.278L16.012 223.262L17.012 223.262L17.012 219.278L16.012 219.278ZM16.512 222.762L10.752 222.762L10.752 223.762L16.512 223.762L16.512 222.762ZM11.252 223.262L11.252 219.278L10.252 219.278L10.252 223.262L11.252 223.262ZM10.752 218.778L9.59999 218.778L9.59999 219.778L10.752 219.778L10.752 218.778ZM9.59999 218.778C6.75959 218.778 4.56108 217.948 2.94555 216.333L2.23844 217.04C4.07891 218.88 6.5524 219.778 9.59999 219.778L9.59999 218.778ZM2.94878 216.336C1.33662 214.694 0.499993 212.37 0.499993 209.294L-0.500007 209.294C-0.500007 212.554 0.391365 215.159 2.23521 217.037L2.94878 216.336ZM0.499993 209.294C0.499992 208.213 0.623591 207.199 0.868132 206.251L-0.100145 206.001C-0.367606 207.038 -0.500008 208.136 -0.500007 209.294L0.499993 209.294ZM0.872443 206.233C1.0869 205.253 1.40317 204.467 1.80802 203.86L0.975969 203.305C0.484821 204.042 0.129084 204.952 -0.104457 206.019L0.872443 206.233ZM1.22146 204.052L6.64546 206.02L6.98653 205.08L1.56253 203.112L1.22146 204.052ZM6.40709 205.263C5.73442 206.218 5.40399 207.329 5.40399 208.574L6.40399 208.574C6.40399 207.515 6.68157 206.61 7.2249 205.838L6.40709 205.263ZM5.40399 208.574C5.40399 209.8 5.74283 210.808 6.50342 211.5C7.2551 212.184 8.33395 212.482 9.64799 212.482L9.64799 211.482C8.46604 211.482 7.67289 211.212 7.17657 210.76C6.68916 210.317 6.40399 209.62 6.40399 208.574L5.40399 208.574ZM9.64799 212.482L10.752 212.482L10.752 211.482L9.64799 211.482L9.64799 212.482ZM25.2 174.884L25.7 174.884L25.7 174.421L25.2383 174.385L25.2 174.884ZM25.2 194.42L24.7 194.42L24.7 195.042L25.3074 194.908L25.2 194.42ZM28.992 191.924L28.5838 191.635L28.992 191.924ZM29.808 183.476L30.2762 183.3L30.2732 183.293L29.808 183.476ZM27.888 180.548L27.549 180.18L27.1732 180.527L27.5281 180.895L27.888 180.548ZM32.208 176.564L32.5369 176.187L32.1989 175.892L31.869 176.196L32.208 176.564ZM34.704 194.948L35.1487 195.177L35.1512 195.171L34.704 194.948ZM29.952 200.132L30.2102 200.56L29.952 200.132ZM16.272 200.18L16.0167 200.61L16.0188 200.611L16.272 200.18ZM11.52 195.236L11.9602 194.999L11.9589 194.996L11.52 195.236ZM11.424 181.316L10.9824 181.081L11.424 181.316ZM16.128 176.516L16.3732 176.952L16.3812 176.947L16.128 176.516ZM16.896 192.404L16.5119 192.724L16.896 192.404ZM20.832 194.516L20.756 195.01L21.332 195.099L21.332 194.516L20.832 194.516ZM20.832 181.796L21.332 181.796L21.332 181.211L20.7545 181.302L20.832 181.796ZM16.944 183.908L17.3229 184.234L17.3281 184.228L16.944 183.908ZM23.184 175.24C23.1821 175.24 23.1917 175.24 23.222 175.241C23.2491 175.243 23.2858 175.245 23.3328 175.248C23.4266 175.254 23.5569 175.263 23.7244 175.275C24.059 175.299 24.5379 175.334 25.1616 175.382L25.2383 174.385C24.0089 174.291 23.3053 174.24 23.184 174.24L23.184 175.24ZM24.7 174.884L24.7 194.42L25.7 194.42L25.7 174.884L24.7 174.884ZM25.3074 194.908C27.0264 194.53 28.3988 193.628 29.4002 192.213L28.5838 191.635C27.7292 192.843 26.5736 193.606 25.0926 193.932L25.3074 194.908ZM29.4002 192.213C30.3998 190.799 30.884 189.061 30.884 187.028L29.884 187.028C29.884 188.899 29.4402 190.424 28.5838 191.635L29.4002 192.213ZM30.884 187.028C30.884 185.637 30.6854 184.392 30.2762 183.3L29.3398 183.651C29.6986 184.608 29.884 185.731 29.884 187.028L30.884 187.028ZM30.2732 183.293C29.8309 182.17 29.153 181.139 28.2479 180.201L27.5281 180.895C28.351 181.748 28.953 182.67 29.3428 183.659L30.2732 183.293ZM28.227 180.915L32.547 176.931L31.869 176.196L27.549 180.18L28.227 180.915ZM31.879 176.94C34.5269 179.253 35.884 182.651 35.884 187.22L36.884 187.22C36.884 182.445 35.4571 178.738 32.5369 176.187L31.879 176.94ZM35.884 187.22C35.884 190.067 35.3368 192.564 34.2568 194.724L35.1512 195.171C36.3112 192.852 36.884 190.197 36.884 187.22L35.884 187.22ZM34.2594 194.719C33.1467 196.883 31.6247 198.539 29.6937 199.704L30.2102 200.56C32.3113 199.293 33.9573 197.493 35.1486 195.177L34.2594 194.719ZM29.6937 199.704C27.7624 200.869 25.5652 201.456 23.088 201.456L23.088 202.456C25.7308 202.456 28.1095 201.827 30.2102 200.56L29.6937 199.704ZM23.088 201.456C20.6415 201.456 18.4582 200.884 16.5252 199.749L16.0188 200.611C18.1178 201.844 20.4784 202.456 23.088 202.456L23.088 201.456ZM16.5273 199.75C14.5566 198.58 13.0368 196.998 11.9602 194.999L11.0798 195.473C12.2431 197.633 13.8914 199.348 16.0167 200.61L16.5273 199.75ZM11.9589 194.996C10.8501 192.964 10.292 190.695 10.292 188.18L9.29199 188.18C9.29199 190.849 9.88591 193.284 11.081 195.475L11.9589 194.996ZM10.292 188.18C10.292 185.726 10.8193 183.52 11.8656 181.55L10.9824 181.081C9.85267 183.208 9.29199 185.578 9.29199 188.18L10.292 188.18ZM11.8656 181.55C12.908 179.588 14.4073 178.057 16.3731 176.952L15.8829 176.08C13.7527 177.278 12.1159 178.948 10.9824 181.081L11.8656 181.55ZM16.3812 176.947C18.3095 175.814 20.5715 175.24 23.184 175.24L23.184 174.24C20.4205 174.24 17.9784 174.849 15.8748 176.085L16.3812 176.947ZM14.956 188.132C14.956 189.929 15.4672 191.47 16.5119 192.724L17.2801 192.084C16.4048 191.033 15.956 189.727 15.956 188.132L14.956 188.132ZM16.5119 192.724C17.5596 193.981 18.9873 194.738 20.756 195.01L20.908 194.022C19.3487 193.782 18.1524 193.131 17.2801 192.084L16.5119 192.724ZM21.332 194.516L21.332 181.796L20.332 181.796L20.332 194.516L21.332 194.516ZM20.7545 181.302C19.0157 181.575 17.6057 182.333 16.5599 183.588L17.3281 184.228C18.2023 183.179 19.3843 182.529 20.9095 182.29L20.7545 181.302ZM16.5651 183.582C15.4874 184.833 14.956 186.36 14.956 188.132L15.956 188.132C15.956 186.575 16.4166 185.287 17.3229 184.234L16.5651 183.582ZM34.704 162.795L35.146 163.029L35.1499 163.021L34.704 162.795ZM29.952 167.931L30.2103 168.359L30.2152 168.356L29.952 167.931ZM16.224 167.931L15.9608 168.356L15.9657 168.359L16.224 167.931ZM11.52 162.795L11.9646 162.566L11.9633 162.563L11.52 162.795ZM11.52 148.251L11.9542 148.499L11.9587 148.491L11.52 148.251ZM16.368 143.787L16.8085 143.55L16.5898 143.143L16.1669 143.329L16.368 143.787ZM19.488 149.595L19.7348 150.029L20.1596 149.788L19.9285 149.358L19.488 149.595ZM17.856 160.251L17.5024 160.604L17.856 160.251ZM26.688 149.595L26.249 149.355L26.0112 149.791L26.4457 150.032L26.688 149.595ZM29.856 143.787L30.0624 143.331L29.6394 143.14L29.417 143.547L29.856 143.787ZM34.656 148.251L34.2202 148.496L34.2219 148.499L34.656 148.251ZM35.884 155.355C35.884 158.037 35.3387 160.438 34.2581 162.568L35.1499 163.021C36.3093 160.735 36.884 158.176 36.884 155.355L35.884 155.355ZM34.2621 162.561C33.15 164.661 31.6264 166.306 29.6888 167.505L30.2152 168.356C32.3096 167.059 33.954 165.28 35.1459 163.029L34.2621 162.561ZM29.6937 167.502C27.7624 168.667 25.5652 169.255 23.088 169.255L23.088 170.255C25.7308 170.255 28.1095 169.626 30.2102 168.359L29.6937 167.502ZM23.088 169.255C20.6108 169.255 18.4135 168.667 16.4822 167.502L15.9657 168.359C18.0664 169.626 20.4452 170.255 23.088 170.255L23.088 169.255ZM16.4872 167.505C14.5509 166.307 13.0444 164.664 11.9646 162.566L11.0754 163.023C12.2356 165.277 13.8651 167.058 15.9608 168.356L16.4872 167.505ZM11.9633 162.563C10.8523 160.434 10.292 158.035 10.292 155.355L9.29199 155.355C9.29199 158.179 9.88366 160.739 11.0767 163.026L11.9633 162.563ZM10.292 155.355C10.292 152.707 10.8522 150.427 11.9541 148.499L11.0859 148.003C9.88381 150.106 9.29199 152.563 9.29199 155.355L10.292 155.355ZM11.9587 148.491C13.0264 146.538 14.5595 145.127 16.5691 144.244L16.1669 143.329C13.9525 144.302 12.2536 145.867 11.0813 148.011L11.9587 148.491ZM15.9275 144.023L19.0475 149.831L19.9285 149.358L16.8085 143.55L15.9275 144.023ZM19.2412 149.16C16.7314 150.584 15.436 152.678 15.436 155.403L16.436 155.403C16.436 153.071 17.5085 151.293 19.7348 150.029L19.2412 149.16ZM15.436 155.403C15.436 157.476 16.1209 159.223 17.5024 160.604L18.2095 159.897C17.0311 158.719 16.436 157.233 16.436 155.403L15.436 155.403ZM17.5024 160.604C18.8961 161.998 20.7784 162.671 23.088 162.671L23.088 161.671C20.9816 161.671 19.3759 161.063 18.2095 159.897L17.5024 160.604ZM23.088 162.671C25.3976 162.671 27.2799 161.998 28.6735 160.604L27.9664 159.897C26.8001 161.063 25.1944 161.671 23.088 161.671L23.088 162.671ZM28.6735 160.604C30.0551 159.223 30.74 157.476 30.74 155.403L29.74 155.403C29.74 157.233 29.1449 158.719 27.9664 159.897L28.6735 160.604ZM30.74 155.403C30.74 154.043 30.4245 152.826 29.7785 151.77C29.1335 150.715 28.1753 149.847 26.9303 149.157L26.4457 150.032C27.5686 150.654 28.3865 151.41 28.9254 152.291C29.4635 153.171 29.74 154.203 29.74 155.403L30.74 155.403ZM27.1269 149.834L30.2949 144.026L29.417 143.547L26.249 149.355L27.1269 149.834ZM29.6496 144.242C31.5962 145.124 33.1179 146.536 34.2202 148.496L35.0918 148.005C33.8901 145.869 32.2118 144.305 30.0624 143.331L29.6496 144.242ZM34.2219 148.499C35.3238 150.427 35.884 152.707 35.884 155.355L36.884 155.355C36.884 152.563 36.2922 150.106 35.0901 148.003L34.2219 148.499ZM34.752 120.524L35.1541 120.227L34.9284 119.922L34.5736 120.057L34.752 120.524ZM36 123.26L36.486 123.142L36.4833 123.132L36 123.26ZM34.032 133.772L34.3959 134.115L34.3991 134.112L34.032 133.772ZM16.512 136.268L16.512 135.768L16.012 135.768L16.012 136.268L16.512 136.268ZM16.512 140.252L16.512 140.752L17.012 140.752L17.012 140.252L16.512 140.252ZM10.752 140.252L10.252 140.252L10.252 140.752L10.752 140.752L10.752 140.252ZM10.752 136.268L11.252 136.268L11.252 135.768L10.752 135.768L10.752 136.268ZM4.46399 136.268L3.96399 136.268L3.96399 136.768L4.46399 136.768L4.46399 136.268ZM4.46399 128.78L4.46399 128.28L3.96399 128.28L3.96399 128.78L4.46399 128.78ZM10.752 128.78L10.752 129.28L11.252 129.28L11.252 128.78L10.752 128.78ZM10.752 122.348L10.752 121.848L10.252 121.848L10.252 122.348L10.752 122.348ZM16.512 122.348L17.012 122.348L17.012 121.848L16.512 121.848L16.512 122.348ZM16.512 128.78L16.012 128.78L16.012 129.28L16.512 129.28L16.512 128.78ZM29.568 127.964L29.9014 128.337L29.9117 128.328L29.9215 128.318L29.568 127.964ZM29.472 122.54L29.2936 122.073L28.6662 122.313L29.0757 122.845L29.472 122.54ZM34.3499 120.821C34.8488 121.496 35.2412 122.348 35.5166 123.388L36.4833 123.132C36.1828 121.997 35.7431 121.024 35.1541 120.227L34.3499 120.821ZM35.5141 123.378C35.7599 124.392 35.884 125.472 35.884 126.62L36.884 126.62C36.884 125.4 36.7521 124.24 36.4859 123.142L35.5141 123.378ZM35.884 126.62C35.884 129.609 35.1224 131.856 33.6649 133.433L34.3991 134.112C36.0775 132.296 36.884 129.776 36.884 126.62L35.884 126.62ZM33.6681 133.429C32.2228 134.963 30.0696 135.768 27.12 135.768L27.12 136.768C30.2504 136.768 32.7052 135.909 34.3959 134.115L33.6681 133.429ZM27.12 135.768L16.512 135.768L16.512 136.768L27.12 136.768L27.12 135.768ZM16.012 136.268L16.012 140.252L17.012 140.252L17.012 136.268L16.012 136.268ZM16.512 139.752L10.752 139.752L10.752 140.752L16.512 140.752L16.512 139.752ZM11.252 140.252L11.252 136.268L10.252 136.268L10.252 140.252L11.252 140.252ZM10.752 135.768L4.46399 135.768L4.46399 136.768L10.752 136.768L10.752 135.768ZM4.96399 136.268L4.96399 128.78L3.96399 128.78L3.96399 136.268L4.96399 136.268ZM4.46399 129.28L10.752 129.28L10.752 128.28L4.46399 128.28L4.46399 129.28ZM11.252 128.78L11.252 122.348L10.252 122.348L10.252 128.78L11.252 128.78ZM10.752 122.848L16.512 122.848L16.512 121.848L10.752 121.848L10.752 122.848ZM16.012 122.348L16.012 128.78L17.012 128.78L17.012 122.348L16.012 122.348ZM16.512 129.28L27.024 129.28L27.024 128.28L16.512 128.28L16.512 129.28ZM27.024 129.28C28.1933 129.28 29.1748 128.987 29.9014 128.337L29.2346 127.592C28.7452 128.029 28.0307 128.28 27.024 128.28L27.024 129.28ZM29.9215 128.318C30.614 127.625 30.932 126.685 30.932 125.564L29.932 125.564C29.932 126.492 29.674 127.151 29.2144 127.611L29.9215 128.318ZM30.932 125.564C30.932 124.285 30.5841 123.166 29.8683 122.235L29.0757 122.845C29.6399 123.579 29.932 124.476 29.932 125.564L30.932 125.564ZM29.6503 123.007L34.9303 120.991L34.5736 120.057L29.2936 122.073L29.6503 123.007ZM58.472 289.752L58.9058 290.001L58.9104 289.992L58.472 289.752ZM63.128 285.096L63.3708 285.533L63.3738 285.531L63.128 285.096ZM77.096 285.096L77.3418 284.661L77.3388 284.659L77.096 285.096ZM81.752 289.752L82.1887 289.509L82.1874 289.506L81.752 289.752ZM80.264 304.056L79.9279 303.686L78.9692 304.556L80.264 304.556L80.264 304.056ZM92.312 304.056L92.812 304.056L92.812 303.556L92.312 303.556L92.312 304.056ZM92.312 311.544L92.312 312.044L92.812 312.044L92.812 311.544L92.312 311.544ZM57.176 311.544L56.676 311.544L56.676 312.044L57.176 312.044L57.176 311.544ZM57.176 304.392L57.176 303.892L56.676 303.892L56.676 304.392L57.176 304.392ZM60.152 304.392L60.152 304.892L61.5391 304.892L60.471 304.007L60.152 304.392ZM75.32 292.872L74.9754 293.234L74.9756 293.234L75.32 292.872ZM64.904 292.872L65.244 293.239L65.2531 293.23L64.904 292.872ZM64.904 302.328L64.5594 302.69L64.5596 302.69L64.904 302.328ZM75.32 302.328L75.66 302.695L75.6691 302.686L75.32 302.328ZM57.292 296.28C57.292 293.961 57.832 291.872 58.9057 290.001L58.0383 289.503C56.872 291.536 56.292 293.799 56.292 296.28L57.292 296.28ZM58.9104 289.992C59.9521 288.093 61.4356 286.608 63.3708 285.533L62.8852 284.659C60.7884 285.824 59.1678 287.443 58.0336 289.512L58.9104 289.992ZM63.3738 285.531C65.2712 284.46 67.5037 283.916 70.088 283.916L70.088 282.916C67.3603 282.916 64.9528 283.492 62.8822 284.661L63.3738 285.531ZM70.088 283.916C72.672 283.916 74.9221 284.46 76.8532 285.533L77.3388 284.659C75.2379 283.492 72.8159 282.916 70.088 282.916L70.088 283.916ZM76.8502 285.531C78.7549 286.607 80.2413 288.093 81.3166 289.998L82.1874 289.506C81.0227 287.443 79.4051 285.825 77.3418 284.661L76.8502 285.531ZM81.3153 289.995C82.3587 291.868 82.884 293.959 82.884 296.28L83.884 296.28C83.884 293.801 83.3213 291.54 82.1887 289.509L81.3153 289.995ZM82.884 296.28C82.884 299.462 81.8852 301.909 79.9279 303.686L80.6001 304.426C82.8028 302.427 83.884 299.69 83.884 296.28L82.884 296.28ZM80.264 304.556L92.312 304.556L92.312 303.556L80.264 303.556L80.264 304.556ZM91.812 304.056L91.812 311.544L92.812 311.544L92.812 304.056L91.812 304.056ZM92.312 311.044L57.176 311.044L57.176 312.044L92.312 312.044L92.312 311.044ZM57.676 311.544L57.676 304.392L56.676 304.392L56.676 311.544L57.676 311.544ZM57.176 304.892L60.152 304.892L60.152 303.892L57.176 303.892L57.176 304.892ZM60.471 304.007C58.3708 302.267 57.292 299.719 57.292 296.28L56.292 296.28C56.292 299.945 57.4532 302.805 59.833 304.777L60.471 304.007ZM77.74 297.576C77.74 295.532 77.053 293.829 75.6644 292.509L74.9756 293.234C76.147 294.347 76.74 295.78 76.74 297.576L77.74 297.576ZM75.6646 292.51C74.2415 291.156 72.3648 290.5 70.088 290.5L70.088 291.5C72.1632 291.5 73.7745 292.092 74.9754 293.234L75.6646 292.51ZM70.088 290.5C67.8116 290.5 65.9478 291.156 64.5549 292.514L65.2531 293.23C66.4202 292.092 68.0124 291.5 70.088 291.5L70.088 290.5ZM64.5641 292.505C63.1419 293.823 62.436 295.528 62.436 297.576L63.436 297.576C63.436 295.784 64.0421 294.353 65.2439 293.239L64.5641 292.505ZM62.436 297.576C62.436 299.624 63.1417 301.342 64.5594 302.69L65.2486 301.966C64.0423 300.818 63.436 299.368 63.436 297.576L62.436 297.576ZM64.5596 302.69C65.953 304.014 67.8152 304.652 70.088 304.652L70.088 303.652C68.0088 303.652 66.415 303.074 65.2484 301.965L64.5596 302.69ZM70.088 304.652C72.3613 304.652 74.2363 304.014 75.6599 302.695L74.9801 301.961C73.7797 303.074 72.1667 303.652 70.088 303.652L70.088 304.652ZM75.6691 302.686C77.0532 301.336 77.74 299.62 77.74 297.576L76.74 297.576C76.74 299.372 76.1468 300.824 74.9709 301.97L75.6691 302.686ZM60.584 269.331L60.584 269.831L62.1378 269.831L60.8756 268.925L60.584 269.331ZM57.752 265.731L57.2904 265.924L57.2919 265.927L57.752 265.731ZM56.792 260.451L56.792 259.951L56.292 259.951L56.292 260.451L56.792 260.451ZM63.704 260.451L64.2025 260.49L64.2439 259.951L63.704 259.951L63.704 260.451ZM65.432 267.171L65.7903 266.823L65.7856 266.818L65.432 267.171ZM83 268.995L83.5 268.995L83.5 268.495L83 268.495L83 268.995ZM83 276.483L83 276.983L83.5 276.983L83.5 276.483L83 276.483ZM57.176 276.483L56.676 276.483L56.676 276.983L57.176 276.983L57.176 276.483ZM57.176 269.331L57.176 268.831L56.676 268.831L56.676 269.331L57.176 269.331ZM60.8756 268.925C59.7068 268.086 58.8186 266.961 58.2121 265.536L57.2919 265.927C57.9654 267.51 58.9652 268.785 60.2924 269.738L60.8756 268.925ZM58.2135 265.539C57.6033 264.075 57.292 262.382 57.292 260.451L56.292 260.451C56.292 262.489 56.6207 264.316 57.2905 265.924L58.2135 265.539ZM56.792 260.951L63.704 260.951L63.704 259.951L56.792 259.951L56.792 260.951ZM63.2055 260.413C63.1417 261.242 63.108 261.821 63.108 262.131L64.108 262.131C64.108 261.866 64.1383 261.324 64.2025 260.49L63.2055 260.413ZM63.108 262.131C63.108 264.373 63.7468 266.193 65.0784 267.525L65.7856 266.818C64.6852 265.718 64.108 264.177 64.108 262.131L63.108 262.131ZM65.0738 267.52C66.3852 268.867 68.3298 269.495 70.808 269.495L70.808 268.495C68.4862 268.495 66.8468 267.908 65.7902 266.823L65.0738 267.52ZM70.808 269.495L83 269.495L83 268.495L70.808 268.495L70.808 269.495ZM82.5 268.995L82.5 276.483L83.5 276.483L83.5 268.995L82.5 268.995ZM83 275.983L57.176 275.983L57.176 276.983L83 276.983L83 275.983ZM57.676 276.483L57.676 269.331L56.676 269.331L56.676 276.483L57.676 276.483ZM57.176 269.831L60.584 269.831L60.584 268.831L57.176 268.831L57.176 269.831ZM81.704 249.369L82.1445 249.606L82.1486 249.598L81.704 249.369ZM76.952 254.409L77.2102 254.838L76.952 254.409ZM63.224 254.409L62.9657 254.838L63.224 254.409ZM58.52 249.369L58.9632 249.138L58.9619 249.135L58.52 249.369ZM58.52 234.729L58.9605 234.966L58.9632 234.961L58.52 234.729ZM63.224 229.689L62.9657 229.261L63.224 229.689ZM76.952 229.689L77.2102 229.261L76.952 229.689ZM81.704 234.729L82.1472 234.498L82.1444 234.493L81.704 234.729ZM75.32 237.321L74.9754 237.684L74.9756 237.684L75.32 237.321ZM64.904 237.321L65.244 237.688L65.253 237.679L64.904 237.321ZM64.904 246.777L65.2531 246.419L65.2486 246.415L64.904 246.777ZM75.32 246.777L75.6646 247.14L75.669 247.135L75.32 246.777ZM82.884 242.025C82.884 244.675 82.3391 247.043 81.2594 249.141L82.1486 249.598C83.3089 247.344 83.884 244.816 83.884 242.025L82.884 242.025ZM81.2635 249.133C80.1525 251.2 78.6303 252.813 76.6938 253.981L77.2102 254.838C79.3057 253.574 80.9515 251.826 82.1444 249.606L81.2635 249.133ZM76.6938 253.981C74.7624 255.146 72.5652 255.733 70.088 255.733L70.088 256.733C72.7308 256.733 75.1095 256.105 77.2102 254.838L76.6938 253.981ZM70.088 255.733C67.6108 255.733 65.4135 255.146 63.4822 253.981L62.9657 254.838C65.0664 256.105 67.4452 256.733 70.088 256.733L70.088 255.733ZM63.4822 253.981C61.547 252.814 60.0419 251.203 58.9632 249.138L58.0768 249.601C59.238 251.824 60.869 253.573 62.9657 254.838L63.4822 253.981ZM58.9619 249.135C57.8519 247.039 57.292 244.673 57.292 242.025L56.292 242.025C56.292 244.818 56.8841 247.348 58.0781 249.603L58.9619 249.135ZM57.292 242.025C57.292 239.378 57.852 237.029 58.9604 234.966L58.0795 234.493C56.884 236.718 56.292 239.233 56.292 242.025L57.292 242.025ZM58.9632 234.961C60.0419 232.896 61.547 231.285 63.4822 230.118L62.9657 229.261C60.869 230.526 59.238 232.275 58.0768 234.498L58.9632 234.961ZM63.4822 230.118C65.4135 228.953 67.6108 228.365 70.088 228.365L70.088 227.365C67.4452 227.365 65.0664 227.994 62.9657 229.261L63.4822 230.118ZM70.088 228.365C72.5652 228.365 74.7624 228.953 76.6938 230.118L77.2102 229.261C75.1095 227.994 72.7308 227.365 70.088 227.365L70.088 228.365ZM76.6938 230.118C78.6303 231.286 80.1525 232.898 81.2635 234.966L82.1444 234.493C80.9515 232.272 79.3057 230.525 77.2102 229.261L76.6938 230.118ZM81.2608 234.961C82.3391 237.025 82.884 239.376 82.884 242.025L83.884 242.025C83.884 239.235 83.3089 236.722 82.1472 234.498L81.2608 234.961ZM77.74 242.025C77.74 239.982 77.053 238.278 75.6644 236.959L74.9756 237.684C76.147 238.797 76.74 240.229 76.74 242.025L77.74 242.025ZM75.6646 236.959C74.2415 235.605 72.3648 234.949 70.088 234.949L70.088 235.949C72.1632 235.949 73.7745 236.541 74.9754 237.684L75.6646 236.959ZM70.088 234.949C67.8116 234.949 65.9478 235.605 64.5549 236.963L65.253 237.679C66.4202 236.541 68.0123 235.949 70.088 235.949L70.088 234.949ZM64.5641 236.955C63.1419 238.273 62.436 239.978 62.436 242.025L63.436 242.025C63.436 240.233 64.0421 238.802 65.2439 237.688L64.5641 236.955ZM62.436 242.025C62.436 244.073 63.1417 245.791 64.5594 247.14L65.2486 246.415C64.0423 245.268 63.436 243.818 63.436 242.025L62.436 242.025ZM64.5549 247.135C65.9478 248.493 67.8116 249.149 70.088 249.149L70.088 248.149C68.0123 248.149 66.4202 247.557 65.253 246.419L64.5549 247.135ZM70.088 249.149C72.3648 249.149 74.2415 248.493 75.6646 247.14L74.9754 246.415C73.7745 247.557 72.1632 248.149 70.088 248.149L70.088 249.149ZM75.669 247.135C77.0532 245.786 77.74 244.069 77.74 242.025L76.74 242.025C76.74 243.822 76.1468 245.273 74.9709 246.419L75.669 247.135ZM58.472 199.148L58.9058 199.397L58.9104 199.389L58.472 199.148ZM63.128 194.492L63.3708 194.929L63.3738 194.928L63.128 194.492ZM77.096 194.492L77.3418 194.057L77.3388 194.055L77.096 194.492ZM81.752 199.148L82.1887 198.905L82.1874 198.902L81.752 199.148ZM80.264 213.452L79.9279 213.082L78.9692 213.952L80.264 213.952L80.264 213.452ZM92.312 213.452L92.812 213.452L92.812 212.952L92.312 212.952L92.312 213.452ZM92.312 220.94L92.312 221.44L92.812 221.44L92.812 220.94L92.312 220.94ZM57.176 220.94L56.676 220.94L56.676 221.44L57.176 221.44L57.176 220.94ZM57.176 213.788L57.176 213.288L56.676 213.288L56.676 213.788L57.176 213.788ZM60.152 213.788L60.152 214.288L61.5391 214.288L60.471 213.403L60.152 213.788ZM75.32 202.268L74.9754 202.631L74.9756 202.631L75.32 202.268ZM64.904 202.268L65.244 202.635L65.253 202.626L64.904 202.268ZM64.904 211.724L64.5594 212.087L64.5596 212.087L64.904 211.724ZM75.32 211.724L75.66 212.091L75.669 212.082L75.32 211.724ZM57.292 205.676C57.292 203.358 57.832 201.268 58.9057 199.397L58.0383 198.899C56.872 200.932 56.292 203.195 56.292 205.676L57.292 205.676ZM58.9104 199.389C59.9521 197.489 61.4356 196.004 63.3708 194.929L62.8852 194.055C60.7884 195.22 59.1678 196.839 58.0336 198.908L58.9104 199.389ZM63.3738 194.928C65.2712 193.857 67.5037 193.312 70.088 193.312L70.088 192.312C67.3603 192.312 64.9528 192.888 62.8822 194.057L63.3738 194.928ZM70.088 193.312C72.672 193.312 74.9221 193.856 76.8532 194.929L77.3388 194.055C75.2379 192.888 72.8159 192.312 70.088 192.312L70.088 193.312ZM76.8502 194.928C78.7549 196.003 80.2413 197.489 81.3166 199.394L82.1874 198.902C81.0226 196.839 79.4051 195.222 77.3418 194.057L76.8502 194.928ZM81.3153 199.392C82.3587 201.264 82.884 203.355 82.884 205.676L83.884 205.676C83.884 203.198 83.3213 200.937 82.1887 198.905L81.3153 199.392ZM82.884 205.676C82.884 208.858 81.8852 211.305 79.9279 213.082L80.6 213.822C82.8028 211.823 83.884 209.086 83.884 205.676L82.884 205.676ZM80.264 213.952L92.312 213.952L92.312 212.952L80.264 212.952L80.264 213.952ZM91.812 213.452L91.812 220.94L92.812 220.94L92.812 213.452L91.812 213.452ZM92.312 220.44L57.176 220.44L57.176 221.44L92.312 221.44L92.312 220.44ZM57.676 220.94L57.676 213.788L56.676 213.788L56.676 220.94L57.676 220.94ZM57.176 214.288L60.152 214.288L60.152 213.288L57.176 213.288L57.176 214.288ZM60.471 213.403C58.3708 211.663 57.292 209.115 57.292 205.676L56.292 205.676C56.292 209.341 57.4532 212.201 59.833 214.173L60.471 213.403ZM77.74 206.972C77.74 204.929 77.053 203.225 75.6644 201.906L74.9756 202.631C76.147 203.744 76.74 205.176 76.74 206.972L77.74 206.972ZM75.6646 201.906C74.2415 200.552 72.3648 199.896 70.088 199.896L70.088 200.896C72.1632 200.896 73.7745 201.488 74.9754 202.631L75.6646 201.906ZM70.088 199.896C67.8116 199.896 65.9478 200.552 64.5549 201.91L65.253 202.626C66.4202 201.488 68.0123 200.896 70.088 200.896L70.088 199.896ZM64.5641 201.902C63.1419 203.22 62.436 204.924 62.436 206.972L63.436 206.972C63.436 205.18 64.0421 203.749 65.2439 202.635L64.5641 201.902ZM62.436 206.972C62.436 209.02 63.1417 210.738 64.5594 212.087L65.2486 211.362C64.0423 210.215 63.436 208.765 63.436 206.972L62.436 206.972ZM64.5596 212.087C65.953 213.41 67.8152 214.048 70.088 214.048L70.088 213.048C68.0088 213.048 66.415 212.47 65.2484 211.362L64.5596 212.087ZM70.088 214.048C72.3613 214.048 74.2363 213.41 75.6599 212.091L74.9801 211.358C73.7797 212.47 72.1667 213.048 70.088 213.048L70.088 214.048ZM75.669 212.082C77.0532 210.733 77.74 209.016 77.74 206.972L76.74 206.972C76.74 208.769 76.1468 210.22 74.9709 211.366L75.669 212.082ZM81.704 180.936L82.1445 181.172L82.1486 181.164L81.704 180.936ZM76.952 185.976L77.2102 186.404L76.952 185.976ZM63.224 185.976L62.9657 186.404L63.224 185.976ZM58.52 180.936L58.9632 180.704L58.9619 180.702L58.52 180.936ZM58.52 166.296L58.9605 166.532L58.9632 166.527L58.52 166.296ZM63.224 161.256L62.9657 160.827L63.224 161.256ZM76.952 161.256L77.2102 160.827L76.952 161.256ZM81.704 166.296L82.1472 166.064L82.1444 166.059L81.704 166.296ZM75.32 168.888L74.9754 169.25L74.9756 169.25L75.32 168.888ZM64.904 168.888L65.244 169.254L65.253 169.246L64.904 168.888ZM64.904 178.344L65.2531 177.986L65.2486 177.981L64.904 178.344ZM75.32 178.344L75.6646 178.706L75.669 178.702L75.32 178.344ZM82.884 173.592C82.884 176.241 82.3391 178.609 81.2594 180.707L82.1486 181.164C83.3089 178.91 83.884 176.382 83.884 173.592L82.884 173.592ZM81.2635 180.699C80.1525 182.767 78.6303 184.379 76.6938 185.547L77.2102 186.404C79.3057 185.14 80.9515 183.392 82.1444 181.172L81.2635 180.699ZM76.6938 185.547C74.7624 186.712 72.5652 187.3 70.088 187.3L70.088 188.3C72.7308 188.3 75.1095 187.671 77.2102 186.404L76.6938 185.547ZM70.088 187.3C67.6108 187.3 65.4135 186.712 63.4822 185.547L62.9657 186.404C65.0664 187.671 67.4452 188.3 70.088 188.3L70.088 187.3ZM63.4822 185.547C61.547 184.38 60.0419 182.769 58.9632 180.704L58.0768 181.167C59.238 183.39 60.869 185.139 62.9657 186.404L63.4822 185.547ZM58.9619 180.702C57.8519 178.605 57.292 176.239 57.292 173.592L56.292 173.592C56.292 176.384 56.8841 178.914 58.0781 181.17L58.9619 180.702ZM57.292 173.592C57.292 170.944 57.852 168.595 58.9604 166.532L58.0795 166.059C56.884 168.284 56.292 170.799 56.292 173.592L57.292 173.592ZM58.9632 166.527C60.0419 164.462 61.547 162.851 63.4822 161.684L62.9657 160.827C60.869 162.092 59.238 163.841 58.0768 166.064L58.9632 166.527ZM63.4822 161.684C65.4135 160.519 67.6108 159.932 70.088 159.932L70.088 158.932C67.4452 158.932 65.0664 159.56 62.9657 160.827L63.4822 161.684ZM70.088 159.932C72.5652 159.932 74.7624 160.519 76.6937 161.684L77.2102 160.827C75.1095 159.56 72.7308 158.932 70.088 158.932L70.088 159.932ZM76.6937 161.684C78.6303 162.852 80.1525 164.465 81.2635 166.532L82.1444 166.059C80.9515 163.839 79.3057 162.091 77.2102 160.827L76.6937 161.684ZM81.2608 166.527C82.3391 168.591 82.884 170.942 82.884 173.592L83.884 173.592C83.884 170.801 83.3089 168.288 82.1472 166.064L81.2608 166.527ZM77.74 173.592C77.74 171.548 77.053 169.844 75.6644 168.525L74.9756 169.25C76.147 170.363 76.74 171.795 76.74 173.592L77.74 173.592ZM75.6646 168.525C74.2415 167.172 72.3648 166.516 70.088 166.516L70.088 167.516C72.1632 167.516 73.7745 168.108 74.9754 169.25L75.6646 168.525ZM70.088 166.516C67.8116 166.516 65.9478 167.172 64.5549 168.53L65.253 169.246C66.4202 168.108 68.0123 167.516 70.088 167.516L70.088 166.516ZM64.5641 168.521C63.1419 169.839 62.436 171.544 62.436 173.592L63.436 173.592C63.436 171.799 64.0421 170.368 65.2439 169.254L64.5641 168.521ZM62.436 173.592C62.436 175.639 63.1417 177.357 64.5594 178.706L65.2486 177.981C64.0423 176.834 63.436 175.384 63.436 173.592L62.436 173.592ZM64.5549 178.702C65.9478 180.06 67.8116 180.716 70.088 180.716L70.088 179.716C68.0123 179.716 66.4202 179.124 65.253 177.986L64.5549 178.702ZM70.088 180.716C72.3648 180.716 74.2415 180.06 75.6646 178.706L74.9754 177.981C73.7745 179.124 72.1632 179.716 70.088 179.716L70.088 180.716ZM75.669 178.702C77.0532 177.352 77.74 175.635 77.74 173.592L76.74 173.592C76.74 175.388 76.1468 176.839 74.9709 177.986L75.669 178.702ZM60.584 145.354L60.584 145.854L62.1377 145.854L60.8756 144.948L60.584 145.354ZM57.752 141.754L57.2904 141.947L57.2919 141.95L57.752 141.754ZM56.792 136.474L56.792 135.974L56.292 135.974L56.292 136.474L56.792 136.474ZM63.704 136.474L64.2025 136.513L64.2439 135.974L63.704 135.974L63.704 136.474ZM65.432 143.194L65.7903 142.846L65.7855 142.841L65.432 143.194ZM83 145.018L83.5 145.018L83.5 144.518L83 144.518L83 145.018ZM83 152.506L83 153.006L83.5 153.006L83.5 152.506L83 152.506ZM57.176 152.506L56.676 152.506L56.676 153.006L57.176 153.006L57.176 152.506ZM57.176 145.354L57.176 144.854L56.676 144.854L56.676 145.354L57.176 145.354ZM60.8756 144.948C59.7067 144.109 58.8186 142.984 58.2121 141.559L57.2919 141.95C57.9654 143.533 58.9652 144.808 60.2924 145.761L60.8756 144.948ZM58.2135 141.562C57.6033 140.098 57.292 138.405 57.292 136.474L56.292 136.474C56.292 138.512 56.6207 140.339 57.2905 141.947L58.2135 141.562ZM56.792 136.974L63.704 136.974L63.704 135.974L56.792 135.974L56.792 136.974ZM63.2055 136.436C63.1417 137.265 63.108 137.844 63.108 138.154L64.108 138.154C64.108 137.889 64.1383 137.348 64.2025 136.513L63.2055 136.436ZM63.108 138.154C63.108 140.397 63.7468 142.216 65.0784 143.548L65.7855 142.841C64.6852 141.741 64.108 140.2 64.108 138.154L63.108 138.154ZM65.0738 143.543C66.3852 144.89 68.3298 145.518 70.808 145.518L70.808 144.518C68.4862 144.518 66.8468 143.931 65.7902 142.846L65.0738 143.543ZM70.808 145.518L83 145.518L83 144.518L70.808 144.518L70.808 145.518ZM82.5 145.018L82.5 152.506L83.5 152.506L83.5 145.018L82.5 145.018ZM83 152.006L57.176 152.006L57.176 153.006L83 153.006L83 152.006ZM57.676 152.506L57.676 145.354L56.676 145.354L56.676 152.506L57.676 152.506ZM57.176 145.854L60.584 145.854L60.584 144.854L57.176 144.854L57.176 145.854ZM81.752 112.555L82.1541 112.258L81.9284 111.953L81.5736 112.088L81.752 112.555ZM83 115.291L83.486 115.174L83.4833 115.164L83 115.291ZM81.032 125.803L81.3959 126.146L81.3991 126.143L81.032 125.803ZM63.512 128.299L63.512 127.799L63.012 127.799L63.012 128.299L63.512 128.299ZM63.512 132.283L63.512 132.783L64.012 132.783L64.012 132.283L63.512 132.283ZM57.752 132.283L57.252 132.283L57.252 132.783L57.752 132.783L57.752 132.283ZM57.752 128.299L58.252 128.299L58.252 127.799L57.752 127.799L57.752 128.299ZM51.464 128.299L50.964 128.299L50.964 128.799L51.464 128.799L51.464 128.299ZM51.464 120.811L51.464 120.311L50.964 120.311L50.964 120.811L51.464 120.811ZM57.752 120.811L57.752 121.311L58.252 121.311L58.252 120.811L57.752 120.811ZM57.752 114.379L57.752 113.879L57.252 113.879L57.252 114.379L57.752 114.379ZM63.512 114.379L64.012 114.379L64.012 113.879L63.512 113.879L63.512 114.379ZM63.512 120.811L63.012 120.811L63.012 121.311L63.512 121.311L63.512 120.811ZM76.568 119.995L76.9014 120.368L76.9117 120.359L76.9215 120.349L76.568 119.995ZM76.472 114.571L76.2936 114.104L75.6662 114.344L76.0757 114.876L76.472 114.571ZM81.3499 112.853C81.8488 113.528 82.2412 114.379 82.5166 115.419L83.4833 115.164C83.1828 114.028 82.7431 113.055 82.1541 112.258L81.3499 112.853ZM82.5141 115.409C82.7599 116.423 82.884 117.504 82.884 118.651L83.884 118.651C83.884 117.431 83.7521 116.272 83.4859 115.174L82.5141 115.409ZM82.884 118.651C82.884 121.64 82.1224 123.887 80.6649 125.464L81.3991 126.143C83.0775 124.327 83.884 121.807 83.884 118.651L82.884 118.651ZM80.6681 125.461C79.2228 126.994 77.0696 127.799 74.12 127.799L74.12 128.799C77.2504 128.799 79.7052 127.941 81.3959 126.146L80.6681 125.461ZM74.12 127.799L63.512 127.799L63.512 128.799L74.12 128.799L74.12 127.799ZM63.012 128.299L63.012 132.283L64.012 132.283L64.012 128.299L63.012 128.299ZM63.512 131.783L57.752 131.783L57.752 132.783L63.512 132.783L63.512 131.783ZM58.252 132.283L58.252 128.299L57.252 128.299L57.252 132.283L58.252 132.283ZM57.752 127.799L51.464 127.799L51.464 128.799L57.752 128.799L57.752 127.799ZM51.964 128.299L51.964 120.811L50.964 120.811L50.964 128.299L51.964 128.299ZM51.464 121.311L57.752 121.311L57.752 120.311L51.464 120.311L51.464 121.311ZM58.252 120.811L58.252 114.379L57.252 114.379L57.252 120.811L58.252 120.811ZM57.752 114.879L63.512 114.879L63.512 113.879L57.752 113.879L57.752 114.879ZM63.012 114.379L63.012 120.811L64.012 120.811L64.012 114.379L63.012 114.379ZM63.512 121.311L74.024 121.311L74.024 120.311L63.512 120.311L63.512 121.311ZM74.024 121.311C75.1933 121.311 76.1748 121.018 76.9014 120.368L76.2346 119.623C75.7452 120.061 75.0307 120.311 74.024 120.311L74.024 121.311ZM76.9215 120.349C77.614 119.657 77.932 118.716 77.932 117.595L76.932 117.595C76.932 118.523 76.674 119.182 76.2144 119.642L76.9215 120.349ZM77.932 117.595C77.932 116.316 77.5841 115.197 76.8683 114.267L76.0757 114.876C76.6399 115.61 76.932 116.507 76.932 117.595L77.932 117.595ZM76.6503 115.039L81.9303 113.023L81.5736 112.088L76.2936 114.104L76.6503 115.039ZM57.176 106.432L56.676 106.432L56.676 106.932L57.176 106.932L57.176 106.432ZM57.176 98.9441L57.176 98.4441L56.676 98.4441L56.676 98.9441L57.176 98.9441ZM83 98.9441L83.5 98.9441L83.5 98.4441L83 98.4441L83 98.9441ZM83 106.432L83 106.932L83.5 106.932L83.5 106.432L83 106.432ZM52.376 106.048L52.7429 106.388L52.7429 106.388L52.376 106.048ZM46.424 106.048L46.7909 105.708L46.424 106.048ZM46.376 99.3281L46.7497 99.6603L46.376 99.3281ZM52.376 99.3281L52.7429 98.9884L52.7362 98.9813L52.376 99.3281ZM57.676 106.432L57.676 98.9441L56.676 98.9441L56.676 106.432L57.676 106.432ZM57.176 99.4441L83 99.4441L83 98.4441L57.176 98.4441L57.176 99.4441ZM82.5 98.9441L82.5 106.432L83.5 106.432L83.5 98.9441L82.5 98.9441ZM83 105.932L57.176 105.932L57.176 106.932L83 106.932L83 105.932ZM53.076 102.688C53.076 103.961 52.7093 104.952 52.0091 105.708L52.7429 106.388C53.6427 105.416 54.076 104.167 54.076 102.688L53.076 102.688ZM52.0091 105.708C51.3043 106.47 50.4456 106.844 49.4 106.844L49.4 107.844C50.7224 107.844 51.8476 107.355 52.7429 106.388L52.0091 105.708ZM49.4 106.844C48.3544 106.844 47.4956 106.47 46.7909 105.708L46.0571 106.388C46.9523 107.355 48.0776 107.844 49.4 107.844L49.4 106.844ZM46.7909 105.708C46.0907 104.952 45.724 103.961 45.724 102.688L44.724 102.688C44.724 104.167 45.1573 105.416 46.0571 106.388L46.7909 105.708ZM45.724 102.688C45.724 101.41 46.078 100.416 46.7497 99.6603L46.0023 98.9959C45.138 99.9683 44.724 101.214 44.724 102.688L45.724 102.688ZM46.7497 99.6603C47.4232 98.9026 48.2474 98.5321 49.256 98.5321L49.256 97.5321C47.9606 97.5321 46.8648 98.0256 46.0023 98.9959L46.7497 99.6603ZM49.256 98.5321C50.3743 98.5321 51.2823 98.9132 52.0158 99.6749L52.7362 98.9813C51.8057 98.0151 50.6337 97.5321 49.256 97.5321L49.256 98.5321ZM52.0091 99.6678C52.7093 100.424 53.076 101.415 53.076 102.688L54.076 102.688C54.076 101.209 53.6427 99.9602 52.7429 98.9884L52.0091 99.6678ZM81.704 85.1306L82.1445 85.3673L82.1486 85.3594L81.704 85.1306ZM76.952 90.1706L77.2102 90.5988L76.952 90.1706ZM63.224 90.1706L62.9657 90.5988L63.224 90.1706ZM58.52 85.1306L58.9632 84.8991L58.9619 84.8967L58.52 85.1306ZM58.52 70.4906L58.9605 70.7273L58.9632 70.7221L58.52 70.4906ZM63.224 65.4506L62.9657 65.0225L63.224 65.4506ZM76.952 65.4506L77.2102 65.0225L76.952 65.4506ZM81.704 70.4906L82.1472 70.2591L82.1444 70.254L81.704 70.4906ZM75.32 73.0826L74.9754 73.4449L74.9756 73.4451L75.32 73.0826ZM64.904 73.0826L65.244 73.4495L65.253 73.4406L64.904 73.0826ZM64.904 82.5386L65.2531 82.1806L65.2486 82.1763L64.904 82.5386ZM75.32 82.5386L75.6646 82.9009L75.669 82.8966L75.32 82.5386ZM82.884 77.7866C82.884 80.436 82.3391 82.8042 81.2594 84.9018L82.1486 85.3594C83.3089 83.1051 83.884 80.5772 83.884 77.7866L82.884 77.7866ZM81.2635 84.894C80.1525 86.9617 78.6303 88.5744 76.6937 89.7425L77.2102 90.5988C79.3057 89.3348 80.9515 87.5875 82.1444 85.3673L81.2635 84.894ZM76.6937 89.7425C74.7624 90.9074 72.5652 91.4946 70.088 91.4946L70.088 92.4946C72.7308 92.4946 75.1095 91.8659 77.2102 90.5988L76.6937 89.7425ZM70.088 91.4946C67.6108 91.4946 65.4135 90.9074 63.4822 89.7425L62.9657 90.5988C65.0664 91.8659 67.4452 92.4946 70.088 92.4946L70.088 91.4946ZM63.4822 89.7425C61.547 88.5752 60.0419 86.9642 58.9632 84.8991L58.0768 85.3621C59.238 87.585 60.869 89.3341 62.9657 90.5988L63.4822 89.7425ZM58.9619 84.8967C57.8519 82.8001 57.292 80.4338 57.292 77.7866L56.292 77.7866C56.292 80.5795 56.8841 83.1092 58.0781 85.3646L58.9619 84.8967ZM57.292 77.7866C57.292 75.1393 57.8519 72.7903 58.9604 70.7273L58.0795 70.254C56.884 72.4789 56.292 74.9939 56.292 77.7866L57.292 77.7866ZM58.9632 70.7221C60.0419 68.657 61.547 67.0461 63.4822 65.8788L62.9657 65.0225C60.869 66.2872 59.238 68.0362 58.0768 70.2591L58.9632 70.7221ZM63.4822 65.8788C65.4135 64.7138 67.6108 64.1266 70.088 64.1266L70.088 63.1266C67.4452 63.1266 65.0664 63.7554 62.9657 65.0225L63.4822 65.8788ZM70.088 64.1266C72.5652 64.1266 74.7624 64.7138 76.6937 65.8788L77.2102 65.0225C75.1095 63.7554 72.7308 63.1266 70.088 63.1266L70.088 64.1266ZM76.6937 65.8788C78.6303 67.0468 80.1525 68.6595 81.2635 70.7273L82.1444 70.254C80.9515 68.0337 79.3057 66.2864 77.2102 65.0225L76.6937 65.8788ZM81.2608 70.7221C82.339 72.7862 82.884 75.1371 82.884 77.7866L83.884 77.7866C83.884 74.9962 83.3089 72.4831 82.1472 70.2591L81.2608 70.7221ZM77.74 77.7866C77.74 75.7429 77.053 74.0393 75.6644 72.7201L74.9756 73.4451C76.147 74.5579 76.74 75.9904 76.74 77.7866L77.74 77.7866ZM75.6646 72.7203C74.2415 71.3666 72.3648 70.7106 70.088 70.7106L70.088 71.7106C72.1632 71.7106 73.7745 72.3026 74.9754 73.4449L75.6646 72.7203ZM70.088 70.7106C67.8116 70.7106 65.9478 71.3665 64.5549 72.7246L65.253 73.4406C66.4201 72.3027 68.0123 71.7106 70.088 71.7106L70.088 70.7106ZM64.5641 72.7159C63.1419 74.034 62.436 75.7389 62.436 77.7866L63.436 77.7866C63.436 75.9944 64.0421 74.5632 65.2439 73.4493L64.5641 72.7159ZM62.436 77.7866C62.436 79.8343 63.1417 81.5523 64.5594 82.9009L65.2486 82.1763C64.0423 81.0289 63.436 79.5789 63.436 77.7866L62.436 77.7866ZM64.5549 82.8966C65.9478 84.2547 67.8116 84.9106 70.088 84.9106L70.088 83.9106C68.0123 83.9106 66.4201 83.3186 65.253 82.1806L64.5549 82.8966ZM70.088 84.9106C72.3648 84.9106 74.2415 84.2546 75.6646 82.9009L74.9754 82.1763C73.7745 83.3186 72.1632 83.9106 70.088 83.9106L70.088 84.9106ZM75.669 82.8966C77.0532 81.5471 77.74 79.8303 77.74 77.7866L76.74 77.7866C76.74 79.5829 76.1468 81.0342 74.9709 82.1806L75.669 82.8966ZM59.672 33.2775L60.0285 33.6281L60.0313 33.6252L59.672 33.2775ZM83 30.3015L83.5 30.3015L83.5 29.8015L83 29.8015L83 30.3015ZM83 37.7895L83 38.2895L83.5 38.2895L83.5 37.7895L83 37.7895ZM64.808 39.1335L65.1373 39.5098L65.1431 39.5045L64.808 39.1335ZM65.048 47.5335L65.3966 47.175L65.3916 47.1703L65.048 47.5335ZM83 49.2135L83.5 49.2135L83.5 48.7135L83 48.7135L83 49.2135ZM83 56.7015L83 57.2015L83.5 57.2015L83.5 56.7015L83 56.7015ZM57.176 56.7015L56.676 56.7015L56.676 57.2015L57.176 57.2015L57.176 56.7015ZM57.176 49.5495L57.176 49.0495L56.676 49.0495L56.676 49.5495L57.176 49.5495ZM60.2 49.5495L60.2 50.0495L61.4905 50.0495L60.5369 49.18L60.2 49.5495ZM57.704 45.8535L58.1697 45.6713L58.1661 45.6626L57.704 45.8535ZM57.292 41.0055C57.292 37.9128 58.2159 35.4709 60.0285 33.6281L59.3155 32.9269C57.2881 34.9881 56.292 37.6981 56.292 41.0055L57.292 41.0055ZM60.0313 33.6252C61.8266 31.7701 64.5242 30.8015 68.216 30.8015L68.216 29.8015C64.3558 29.8015 61.3574 30.8169 59.3127 32.9298L60.0313 33.6252ZM68.216 30.8015L83 30.8015L83 29.8015L68.216 29.8015L68.216 30.8015ZM82.5 30.3015L82.5 37.7895L83.5 37.7895L83.5 30.3015L82.5 30.3015ZM83 37.2895L69.368 37.2895L69.368 38.2895L83 38.2895L83 37.2895ZM69.368 37.2895C67.2598 37.2895 65.595 37.7489 64.4728 38.7624L65.1431 39.5045C66.005 38.7261 67.3802 38.2895 69.368 38.2895L69.368 37.2895ZM64.4787 38.7572C63.3203 39.7708 62.772 41.2197 62.772 43.0215L63.772 43.0215C63.772 41.4313 64.2476 40.2882 65.1372 39.5098L64.4787 38.7572ZM62.772 43.0215C62.772 45.0232 63.4045 46.6671 64.7044 47.8967L65.3916 47.1703C64.3235 46.1599 63.772 44.7958 63.772 43.0215L62.772 43.0215ZM64.6995 47.892C65.9787 49.1357 67.8544 49.7135 70.232 49.7135L70.232 48.7135C68.0016 48.7135 66.4213 48.1713 65.3965 47.175L64.6995 47.892ZM70.232 49.7135L83 49.7135L83 48.7135L70.232 48.7135L70.232 49.7135ZM82.5 49.2135L82.5 56.7015L83.5 56.7015L83.5 49.2135L82.5 49.2135ZM83 56.2015L57.176 56.2015L57.176 57.2015L83 57.2015L83 56.2015ZM57.676 56.7015L57.676 49.5495L56.676 49.5495L56.676 56.7015L57.676 56.7015ZM57.176 50.0495L60.2 50.0495L60.2 49.0495L57.176 49.0495L57.176 50.0495ZM60.5369 49.18C59.5097 48.2435 58.7197 47.0772 58.1696 45.6713L57.2384 46.0357C57.8402 47.5738 58.7143 48.8715 59.8631 49.919L60.5369 49.18ZM58.1661 45.6626C57.5856 44.2572 57.292 42.7069 57.292 41.0055L56.292 41.0055C56.292 42.8241 56.6063 44.5058 57.2419 46.0444L58.1661 45.6626ZM82.616 19.194L83.0993 19.3224L83.1011 19.3152L82.616 19.194ZM80.6 24.09L80.3894 24.5435L80.7806 24.7251L81.0177 24.3648L80.6 24.09ZM75.224 21.594L74.8026 21.3248L74.4948 21.8067L75.0134 22.0475L75.224 21.594ZM77.048 17.418L77.5278 17.5591L77.5302 17.5504L77.048 17.418ZM73.784 9.16198L74.2529 9.33563L73.784 9.16198ZM72.968 13.146L73.4625 13.2209L73.4641 13.208L72.968 13.146ZM71.864 18.378L71.3854 18.2333L71.864 18.378ZM69.656 21.978L69.9984 22.3425L70.0041 22.3369L69.656 21.978ZM60.824 22.074L60.524 22.474L60.5256 22.4752L60.824 22.074ZM57.848 17.946L57.3815 18.126L57.3826 18.1288L57.848 17.946ZM57.416 6.08999L57.9031 6.20306L57.9053 6.19299L57.416 6.08999ZM59.048 1.57797L59.2601 1.12521L58.8498 0.93298L58.6182 1.32245L59.048 1.57797ZM64.376 4.07397L64.8116 4.31939L65.0762 3.84985L64.5881 3.62121L64.376 4.07397ZM63.128 15.114L62.6917 15.3583L63.128 15.114ZM66.536 15.018L66.0671 14.8443L66.536 15.018ZM67.448 10.89L66.9547 10.8078L66.9537 10.8146L67.448 10.89ZM68.6 5.70599L69.0777 5.85385L69.0808 5.84335L68.6 5.70599ZM70.76 2.20199L71.1023 2.5664L70.76 2.20199ZM79.448 2.15399L79.7528 1.75766L79.448 2.15399ZM82.376 6.37799L82.8452 6.20514L82.8435 6.20065L82.376 6.37799ZM82.884 12.906C82.884 15.0097 82.6328 17.065 82.1309 19.0727L83.1011 19.3152C83.6231 17.227 83.884 15.0902 83.884 12.906L82.884 12.906ZM82.1327 19.0656C81.5968 21.0831 80.9425 22.6596 80.1823 23.8152L81.0177 24.3648C81.8574 23.0884 82.5471 21.4008 83.0992 19.3224L82.1327 19.0656ZM80.8105 23.6365L75.4345 21.1405L75.0134 22.0475L80.3894 24.5435L80.8105 23.6365ZM75.6453 21.8632C76.412 20.6631 77.0375 19.2258 77.5277 17.5591L76.5683 17.2769C76.0985 18.8742 75.5079 20.2208 74.8026 21.3248L75.6453 21.8632ZM77.5302 17.5504C77.9891 15.8786 78.22 14.2341 78.22 12.618L77.22 12.618C77.22 14.1379 77.0029 15.6934 76.5658 17.2856L77.5302 17.5504ZM78.22 12.618C78.22 11.0088 78.0235 9.72802 77.5801 8.83218C77.3549 8.37728 77.0581 8.0054 76.6763 7.74826C76.2911 7.48886 75.8485 7.36599 75.368 7.36599L75.368 8.36599C75.6714 8.36599 75.9149 8.44113 76.1177 8.57769C76.3239 8.71655 76.517 8.93869 76.6839 9.27578C77.0245 9.96392 77.22 11.0591 77.22 12.618L78.22 12.618ZM75.368 7.36599C74.8943 7.36599 74.464 7.50796 74.1034 7.80301C73.7505 8.0917 73.4956 8.50113 73.3151 8.98834L74.2529 9.33563C74.3924 8.95886 74.5614 8.72027 74.7366 8.57696C74.904 8.44 75.1056 8.36599 75.368 8.36599L75.368 7.36599ZM73.3151 8.98834C72.9744 9.90814 72.697 11.2828 72.4718 13.084L73.4641 13.208C73.687 11.4251 73.9535 10.1438 74.2529 9.33563L73.3151 8.98834ZM72.4736 13.0711C72.1557 15.1696 71.792 16.8882 71.3854 18.2333L72.3426 18.5227C72.7679 17.1157 73.1403 15.3463 73.4623 13.2209L72.4736 13.0711ZM71.3854 18.2333C70.9946 19.526 70.3044 20.6528 69.3079 21.619L70.0041 22.3369C71.1196 21.2552 71.9014 19.982 72.3426 18.5227L71.3854 18.2333ZM69.3136 21.6136C68.3787 22.4919 67.0138 22.966 65.144 22.966L65.144 23.966C67.1781 23.966 68.8213 23.4481 69.9983 22.3424L69.3136 21.6136ZM65.144 22.966C63.6138 22.966 62.2797 22.5333 61.1223 21.6728L60.5256 22.4752C61.8643 23.4706 63.4102 23.966 65.144 23.966L65.144 22.966ZM61.124 21.674C59.932 20.78 58.9904 19.4865 58.3134 17.7632L57.3826 18.1288C58.1136 19.9895 59.1559 21.448 60.524 22.474L61.124 21.674ZM58.3144 17.766C57.6376 16.0122 57.292 13.9318 57.292 11.514L56.292 11.514C56.292 14.0242 56.6504 16.2318 57.3815 18.126L58.3144 17.766ZM57.292 11.514C57.292 9.72836 57.4956 7.95831 57.903 6.20306L56.9289 5.97693C56.5044 7.80566 56.292 9.65161 56.292 11.514L57.292 11.514ZM57.9053 6.19299C58.2817 4.40506 58.8098 2.95691 59.4778 1.83352L58.6182 1.32245C57.8782 2.56704 57.3183 4.12692 56.9267 5.98697L57.9053 6.19299ZM58.8359 2.03076L64.1639 4.52676L64.5881 3.62121L59.2601 1.12521L58.8359 2.03076ZM63.9404 3.82855C62.6168 6.17785 61.956 8.74276 61.956 11.514L62.956 11.514C62.956 8.90921 63.5751 6.51413 64.8116 4.31939L63.9404 3.82855ZM61.956 11.514C61.956 13.1443 62.1814 14.4469 62.6917 15.3583L63.5642 14.8697C63.1786 14.181 62.956 13.0837 62.956 11.514L61.956 11.514ZM62.6917 15.3583C63.1973 16.261 63.9156 16.814 64.856 16.814L64.856 15.814C64.3884 15.814 63.9547 15.5669 63.5642 14.8697L62.6917 15.3583ZM64.856 16.814C65.3513 16.814 65.8026 16.6781 66.1814 16.3859C66.555 16.0977 66.822 15.6855 67.0049 15.1916L66.0671 14.8443C65.93 15.2145 65.757 15.4503 65.5706 15.5941C65.3894 15.7339 65.1607 15.814 64.856 15.814L64.856 16.814ZM67.0049 15.1916C67.3435 14.2774 67.6534 12.8592 67.9423 10.9654L66.9537 10.8146C66.6666 12.6967 66.3685 14.0306 66.0671 14.8443L67.0049 15.1916ZM67.9412 10.9722C68.2912 8.87222 68.6708 7.1683 69.0776 5.85382L68.1223 5.55813C67.6972 6.93167 67.3088 8.68374 66.9548 10.8078L67.9412 10.9722ZM69.0808 5.84335C69.439 4.58941 70.1096 3.49896 71.1023 2.5664L70.4176 1.83755C69.2984 2.889 68.529 4.13458 68.1192 5.56863L69.0808 5.84335ZM71.1023 2.5664C72.0402 1.68536 73.3754 1.21399 75.176 1.21399L75.176 0.213986C73.2006 0.213986 71.5918 0.734585 70.4176 1.83755L71.1023 2.5664ZM75.176 1.21399C76.6676 1.21399 77.9841 1.65869 79.1431 2.55029L79.7528 1.75766C78.4159 0.729275 76.8843 0.213985 75.176 0.213986L75.176 1.21399ZM79.1431 2.55029C80.3008 3.44076 81.2289 4.76358 81.9085 6.55532L82.8435 6.20065C82.1151 4.28039 81.0912 2.7872 79.7528 1.75766L79.1431 2.55029ZM81.9068 6.55084C82.5533 8.30566 82.884 10.4202 82.884 12.906L83.884 12.906C83.884 10.3358 83.5426 8.09832 82.8452 6.20514L81.9068 6.55084Z" fill="white"/>
</svg>
