<svg width="122" height="318" viewBox="0 0 122 318" fill="none" xmlns="http://www.w3.org/2000/svg">
<path d="M32.888 291.744L33.343 291.951L33.3441 291.949L32.888 291.744ZM50.072 286.656L50.3442 286.237L50.3409 286.234L50.072 286.656ZM54.296 291.744L54.7535 291.542L54.7521 291.539L54.296 291.744ZM55.736 306.24L55.236 306.24L55.236 306.74L55.736 306.74L55.736 306.24ZM65 306.24L65.5 306.24L65.5 305.74L65 305.74L65 306.24ZM65 314.016L65 314.516L65.5 314.516L65.5 314.016L65 314.016ZM31.4 314.016L30.9 314.016L30.9 314.516L31.4 314.516L31.4 314.016ZM47.912 294.576L48.2995 294.26L48.2945 294.254L47.912 294.576ZM39.272 294.576L39.6545 294.898L39.6594 294.892L39.272 294.576ZM37.736 306.24L37.236 306.24L37.236 306.74L37.736 306.74L37.736 306.24ZM49.4 306.24L49.4 306.74L49.9 306.74L49.9 306.24L49.4 306.24ZM31.9 299.472C31.9 296.551 32.387 294.048 33.343 291.951L32.433 291.537C31.405 293.792 30.9 296.441 30.9 299.472L31.9 299.472ZM33.3441 291.949C34.3013 289.818 35.6498 288.201 37.3842 287.075L36.8398 286.237C34.9262 287.479 33.4587 289.254 32.4319 291.539L33.3441 291.949ZM37.3842 287.075C39.1157 285.951 41.178 285.38 43.592 285.38L43.592 284.38C41.014 284.38 38.7563 284.993 36.8398 286.237L37.3842 287.075ZM43.592 285.38C45.9724 285.38 48.0368 285.951 49.8031 287.078L50.3409 286.234C48.3952 284.993 46.1396 284.38 43.592 284.38L43.592 285.38ZM49.7998 287.075C51.5342 288.201 52.8827 289.818 53.8399 291.949L54.7521 291.539C53.7253 289.254 52.2578 287.479 50.3442 286.237L49.7998 287.075ZM53.8385 291.946C54.7644 294.044 55.236 296.549 55.236 299.472L56.236 299.472C56.236 296.443 55.7476 293.796 54.7535 291.542L53.8385 291.946ZM55.236 299.472L55.236 306.24L56.236 306.24L56.236 299.472L55.236 299.472ZM55.736 306.74L65 306.74L65 305.74L55.736 305.74L55.736 306.74ZM64.5 306.24L64.5 314.016L65.5 314.016L65.5 306.24L64.5 306.24ZM65 313.516L31.4 313.516L31.4 314.516L65 314.516L65 313.516ZM31.9 314.016L31.9 299.472L30.9 299.472L30.9 314.016L31.9 314.016ZM49.9 299.904C49.9 297.507 49.3924 295.6 48.2994 294.26L47.5246 294.892C48.4156 295.984 48.9 297.629 48.9 299.904L49.9 299.904ZM48.2945 294.254C47.1591 292.906 45.568 292.252 43.592 292.252L43.592 293.252C45.3279 293.252 46.6169 293.814 47.5295 294.898L48.2945 294.254ZM43.592 292.252C41.5875 292.252 39.991 292.904 38.8846 294.26L39.6594 294.892C40.537 293.816 41.8205 293.252 43.592 293.252L43.592 292.252ZM38.8895 294.254C37.761 295.594 37.236 297.504 37.236 299.904L38.236 299.904C38.236 297.632 38.735 295.99 39.6545 294.898L38.8895 294.254ZM37.236 299.904L37.236 306.24L38.236 306.24L38.236 299.904L37.236 299.904ZM37.736 306.74L49.4 306.74L49.4 305.74L37.736 305.74L37.736 306.74ZM49.9 306.24L49.9 299.904L48.9 299.904L48.9 306.24L49.9 306.24ZM54.2 252.831L54.7 252.831L54.7 252.368L54.2383 252.333L54.2 252.831ZM54.2 272.367L53.7 272.367L53.7 272.989L54.3074 272.856L54.2 272.367ZM57.992 269.871L57.5838 269.583L57.992 269.871ZM58.808 261.423L59.2762 261.248L59.2732 261.24L58.808 261.423ZM56.888 258.495L56.549 258.128L56.1732 258.474L56.5281 258.842L56.888 258.495ZM61.208 254.511L61.5369 254.135L61.1989 253.84L60.869 254.144L61.208 254.511ZM63.704 272.895L64.1487 273.124L64.1512 273.119L63.704 272.895ZM58.952 278.079L59.2102 278.508L58.952 278.079ZM45.272 278.127L45.0167 278.557L45.0188 278.559L45.272 278.127ZM40.52 273.183L40.9602 272.946L40.9589 272.944L40.52 273.183ZM40.424 259.263L39.9824 259.029L40.424 259.263ZM45.128 254.463L45.3732 254.899L45.3812 254.895L45.128 254.463ZM45.896 270.351L45.5119 270.671L45.5119 270.671L45.896 270.351ZM49.832 272.463L49.756 272.958L50.332 273.046L50.332 272.463L49.832 272.463ZM49.832 259.743L50.332 259.743L50.332 259.159L49.7545 259.249L49.832 259.743ZM45.944 261.855L46.3229 262.182L46.3281 262.175L45.944 261.855ZM52.184 253.187C52.1821 253.187 52.1917 253.187 52.222 253.189C52.2491 253.19 52.2858 253.192 52.3328 253.195C52.4266 253.201 52.5569 253.21 52.7244 253.222C53.059 253.246 53.5379 253.282 54.1616 253.33L54.2383 252.333C53.0089 252.238 52.3053 252.187 52.184 252.187L52.184 253.187ZM53.7 252.831L53.7 272.367L54.7 272.367L54.7 252.831L53.7 252.831ZM54.3074 272.856C56.0264 272.478 57.3988 271.576 58.4002 270.16L57.5838 269.583C56.7292 270.791 55.5736 271.553 54.0926 271.879L54.3074 272.856ZM58.4002 270.16C59.3998 268.747 59.884 267.008 59.884 264.975L58.884 264.975C58.884 266.847 58.4402 268.372 57.5838 269.583L58.4002 270.16ZM59.884 264.975C59.884 263.585 59.6854 262.339 59.2762 261.248L58.3398 261.599C58.6986 262.556 58.884 263.678 58.884 264.975L59.884 264.975ZM59.2732 261.24C58.831 260.117 58.153 259.087 57.2479 258.148L56.5281 258.842C57.351 259.696 57.953 260.617 58.3428 261.607L59.2732 261.24ZM57.227 258.863L61.547 254.879L60.869 254.144L56.549 258.128L57.227 258.863ZM60.8791 254.888C63.5269 257.201 64.884 260.599 64.884 265.167L65.884 265.167C65.884 260.392 64.4571 256.686 61.5369 254.135L60.8791 254.888ZM64.884 265.167C64.884 268.014 64.3368 270.512 63.2568 272.672L64.1512 273.119C65.3112 270.799 65.884 268.144 65.884 265.167L64.884 265.167ZM63.2594 272.667C62.1467 274.83 60.6247 276.487 58.6938 277.651L59.2102 278.508C61.3113 277.24 62.9573 275.441 64.1486 273.124L63.2594 272.667ZM58.6938 277.651C56.7624 278.816 54.5652 279.403 52.088 279.403L52.088 280.403C54.7308 280.403 57.1096 279.775 59.2102 278.508L58.6938 277.651ZM52.088 279.403C49.6415 279.403 47.4582 278.832 45.5252 277.696L45.0188 278.559C47.1178 279.791 49.4784 280.403 52.088 280.403L52.088 279.403ZM45.5273 277.697C43.5566 276.527 42.0368 274.946 40.9602 272.946L40.0798 273.42C41.2431 275.581 42.8914 277.295 45.0167 278.557L45.5273 277.697ZM40.9589 272.944C39.8501 270.911 39.292 268.642 39.292 266.127L38.292 266.127C38.292 268.796 38.8859 271.232 40.081 273.423L40.9589 272.944ZM39.292 266.127C39.292 263.674 39.8193 261.467 40.8656 259.498L39.9824 259.029C38.8527 261.155 38.292 263.525 38.292 266.127L39.292 266.127ZM40.8656 259.498C41.908 257.536 43.4073 256.005 45.3731 254.899L44.8829 254.028C42.7527 255.226 41.1159 256.895 39.9824 259.029L40.8656 259.498ZM45.3812 254.895C47.3096 253.762 49.5715 253.187 52.184 253.187L52.184 252.187C49.4205 252.187 46.9784 252.797 44.8748 254.032L45.3812 254.895ZM43.956 266.079C43.956 267.876 44.4672 269.418 45.5119 270.671L46.2801 270.031C45.4048 268.981 44.956 267.675 44.956 266.079L43.956 266.079ZM45.5119 270.671C46.5596 271.929 47.9873 272.685 49.756 272.958L49.908 271.969C48.3487 271.729 47.1524 271.078 46.2801 270.031L45.5119 270.671ZM50.332 272.463L50.332 259.743L49.332 259.743L49.332 272.463L50.332 272.463ZM49.7545 259.249C48.0157 259.522 46.6057 260.28 45.5599 261.535L46.3281 262.175C47.2023 261.126 48.3843 260.477 49.9095 260.237L49.7545 259.249ZM45.5651 261.529C44.4874 262.781 43.956 264.308 43.956 266.079L44.956 266.079C44.956 264.523 45.4166 263.234 46.3229 262.182L45.5651 261.529ZM42.584 238.63L42.584 239.13L44.1378 239.13L42.8756 238.224L42.584 238.63ZM39.752 235.03L39.2904 235.222L39.2919 235.226L39.752 235.03ZM38.792 229.75L38.792 229.25L38.292 229.25L38.292 229.75L38.792 229.75ZM45.704 229.75L46.2025 229.788L46.2439 229.25L45.704 229.25L45.704 229.75ZM47.432 236.47L47.7903 236.121L47.7855 236.117L47.432 236.47ZM65 238.294L65.5 238.294L65.5 237.794L65 237.794L65 238.294ZM65 245.782L65 246.282L65.5 246.282L65.5 245.782L65 245.782ZM39.176 245.782L38.676 245.782L38.676 246.282L39.176 246.282L39.176 245.782ZM39.176 238.63L39.176 238.13L38.676 238.13L38.676 238.63L39.176 238.63ZM42.8756 238.224C41.7068 237.385 40.8186 236.26 40.2121 234.834L39.2919 235.226C39.9654 236.809 40.9652 238.083 42.2924 239.036L42.8756 238.224ZM40.2135 234.838C39.6033 233.373 39.292 231.681 39.292 229.75L38.292 229.75C38.292 231.788 38.6207 233.615 39.2905 235.222L40.2135 234.838ZM38.792 230.25L45.704 230.25L45.704 229.25L38.792 229.25L38.792 230.25ZM45.2055 229.712C45.1417 230.541 45.108 231.12 45.108 231.43L46.108 231.43C46.108 231.164 46.1383 230.623 46.2025 229.788L45.2055 229.712ZM45.108 231.43C45.108 233.672 45.7468 235.492 47.0784 236.824L47.7855 236.117C46.6852 235.016 46.108 233.476 46.108 231.43L45.108 231.43ZM47.0738 236.819C48.3852 238.166 50.3298 238.794 52.808 238.794L52.808 237.794C50.4862 237.794 48.8468 237.206 47.7902 236.121L47.0738 236.819ZM52.808 238.794L65 238.794L65 237.794L52.808 237.794L52.808 238.794ZM64.5 238.294L64.5 245.782L65.5 245.782L65.5 238.294L64.5 238.294ZM65 245.282L39.176 245.282L39.176 246.282L65 246.282L65 245.282ZM39.676 245.782L39.676 238.63L38.676 238.63L38.676 245.782L39.676 245.782ZM39.176 239.13L42.584 239.13L42.584 238.13L39.176 238.13L39.176 239.13ZM39.752 214.982L39.752 215.482L40.252 215.482L40.252 214.982L39.752 214.982ZM39.752 208.358L39.752 207.858L39.252 207.858L39.252 208.358L39.752 208.358ZM45.512 208.358L46.012 208.358L46.012 207.858L45.512 207.858L45.512 208.358ZM45.512 214.79L45.012 214.79L45.012 215.29L45.512 215.29L45.512 214.79ZM65 214.79L65.5 214.79L65.5 214.29L65 214.29L65 214.79ZM65 222.278L65 222.778L65.5 222.778L65.5 222.278L65 222.278ZM45.512 222.278L45.512 221.778L45.012 221.778L45.012 222.278L45.512 222.278ZM45.512 226.262L45.512 226.762L46.012 226.762L46.012 226.262L45.512 226.262ZM39.752 226.262L39.252 226.262L39.252 226.762L39.752 226.762L39.752 226.262ZM39.752 222.278L40.252 222.278L40.252 221.778L39.752 221.778L39.752 222.278ZM31.592 219.686L31.2352 220.037L31.2384 220.04L31.592 219.686ZM29.384 209.126L29.8681 209.251L29.8705 209.242L29.8724 209.233L29.384 209.126ZM30.392 206.582L30.5625 206.112L30.1936 205.978L29.976 206.305L30.392 206.582ZM35.816 208.55L36.2249 208.838L36.6012 208.303L35.9865 208.08L35.816 208.55ZM40.252 214.982L40.252 208.358L39.252 208.358L39.252 214.982L40.252 214.982ZM39.752 208.858L45.512 208.858L45.512 207.858L39.752 207.858L39.752 208.858ZM45.012 208.358L45.012 214.79L46.012 214.79L46.012 208.358L45.012 208.358ZM45.512 215.29L65 215.29L65 214.29L45.512 214.29L45.512 215.29ZM64.5 214.79L64.5 222.278L65.5 222.278L65.5 214.79L64.5 214.79ZM65 221.778L45.512 221.778L45.512 222.778L65 222.778L65 221.778ZM45.012 222.278L45.012 226.262L46.012 226.262L46.012 222.278L45.012 222.278ZM45.512 225.762L39.752 225.762L39.752 226.762L45.512 226.762L45.512 225.762ZM40.252 226.262L40.252 222.278L39.252 222.278L39.252 226.262L40.252 226.262ZM39.752 221.778L38.6 221.778L38.6 222.778L39.752 222.778L39.752 221.778ZM38.6 221.778C35.7596 221.778 33.5611 220.948 31.9455 219.333L31.2384 220.04C33.0789 221.88 35.5524 222.778 38.6 222.778L38.6 221.778ZM31.9488 219.336C30.3366 217.694 29.5 215.37 29.5 212.294L28.5 212.294C28.5 215.554 29.3914 218.159 31.2352 220.037L31.9488 219.336ZM29.5 212.294C29.5 211.213 29.6236 210.199 29.8681 209.251L28.8999 209.001C28.6324 210.038 28.5 211.136 28.5 212.294L29.5 212.294ZM29.8724 209.233C30.0869 208.253 30.4032 207.467 30.808 206.86L29.976 206.305C29.4848 207.042 29.1291 207.952 28.8955 209.019L29.8724 209.233ZM30.2215 207.052L35.6455 209.02L35.9865 208.08L30.5625 206.112L30.2215 207.052ZM35.4071 208.263C34.7344 209.218 34.404 210.329 34.404 211.574L35.404 211.574C35.404 210.515 35.6816 209.61 36.2249 208.838L35.4071 208.263ZM34.404 211.574C34.404 212.8 34.7428 213.808 35.5034 214.5C36.2551 215.184 37.3339 215.482 38.648 215.482L38.648 214.482C37.466 214.482 36.6729 214.212 36.1766 213.76C35.6892 213.317 35.404 212.62 35.404 211.574L34.404 211.574ZM38.648 215.482L39.752 215.482L39.752 214.482L38.648 214.482L38.648 215.482ZM54.2 177.884L54.7 177.884L54.7 177.421L54.2383 177.385L54.2 177.884ZM54.2 197.42L53.7 197.42L53.7 198.042L54.3074 197.908L54.2 197.42ZM57.992 194.924L57.5838 194.635L57.992 194.924ZM58.808 186.476L59.2762 186.3L59.2732 186.293L58.808 186.476ZM56.888 183.548L56.549 183.18L56.1732 183.527L56.5281 183.895L56.888 183.548ZM61.208 179.564L61.5369 179.187L61.1989 178.892L60.869 179.196L61.208 179.564ZM63.704 197.948L64.1487 198.177L64.1512 198.171L63.704 197.948ZM58.952 203.132L59.2102 203.56L58.952 203.132ZM45.272 203.18L45.0167 203.61L45.0188 203.611L45.272 203.18ZM40.52 198.236L40.9602 197.999L40.9589 197.996L40.52 198.236ZM40.424 184.316L39.9824 184.081L40.424 184.316ZM45.128 179.516L45.3732 179.952L45.3812 179.947L45.128 179.516ZM45.896 195.404L45.5119 195.724L45.896 195.404ZM49.832 197.516L49.756 198.01L50.332 198.099L50.332 197.516L49.832 197.516ZM49.832 184.796L50.332 184.796L50.332 184.211L49.7545 184.302L49.832 184.796ZM45.944 186.908L46.3229 187.234L46.3281 187.228L45.944 186.908ZM52.184 178.24C52.1821 178.24 52.1917 178.24 52.222 178.241C52.2491 178.243 52.2858 178.245 52.3328 178.248C52.4266 178.254 52.5569 178.263 52.7244 178.275C53.059 178.299 53.5379 178.334 54.1616 178.382L54.2383 177.385C53.0089 177.291 52.3053 177.24 52.184 177.24L52.184 178.24ZM53.7 177.884L53.7 197.42L54.7 197.42L54.7 177.884L53.7 177.884ZM54.3074 197.908C56.0264 197.53 57.3988 196.628 58.4002 195.213L57.5838 194.635C56.7292 195.843 55.5736 196.606 54.0926 196.932L54.3074 197.908ZM58.4002 195.213C59.3998 193.799 59.884 192.061 59.884 190.028L58.884 190.028C58.884 191.899 58.4402 193.424 57.5838 194.635L58.4002 195.213ZM59.884 190.028C59.884 188.637 59.6854 187.392 59.2762 186.3L58.3398 186.651C58.6986 187.608 58.884 188.731 58.884 190.028L59.884 190.028ZM59.2732 186.293C58.8309 185.17 58.153 184.139 57.2479 183.201L56.5281 183.895C57.351 184.748 57.953 185.67 58.3428 186.659L59.2732 186.293ZM57.227 183.915L61.547 179.931L60.869 179.196L56.549 183.18L57.227 183.915ZM60.879 179.94C63.5269 182.253 64.884 185.651 64.884 190.22L65.884 190.22C65.884 185.445 64.4571 181.738 61.5369 179.187L60.879 179.94ZM64.884 190.22C64.884 193.067 64.3368 195.564 63.2568 197.724L64.1512 198.171C65.3112 195.852 65.884 193.197 65.884 190.22L64.884 190.22ZM63.2594 197.719C62.1467 199.883 60.6247 201.539 58.6937 202.704L59.2102 203.56C61.3113 202.293 62.9573 200.493 64.1486 198.177L63.2594 197.719ZM58.6937 202.704C56.7624 203.869 54.5652 204.456 52.088 204.456L52.088 205.456C54.7308 205.456 57.1095 204.827 59.2102 203.56L58.6937 202.704ZM52.088 204.456C49.6415 204.456 47.4582 203.884 45.5252 202.749L45.0188 203.611C47.1178 204.844 49.4784 205.456 52.088 205.456L52.088 204.456ZM45.5273 202.75C43.5566 201.58 42.0368 199.998 40.9602 197.999L40.0798 198.473C41.2431 200.633 42.8914 202.348 45.0167 203.61L45.5273 202.75ZM40.9589 197.996C39.8501 195.964 39.292 193.695 39.292 191.18L38.292 191.18C38.292 193.849 38.8859 196.284 40.081 198.475L40.9589 197.996ZM39.292 191.18C39.292 188.726 39.8193 186.52 40.8656 184.55L39.9824 184.081C38.8527 186.208 38.292 188.578 38.292 191.18L39.292 191.18ZM40.8656 184.55C41.908 182.588 43.4073 181.057 45.3731 179.952L44.8829 179.08C42.7527 180.278 41.1159 181.948 39.9824 184.081L40.8656 184.55ZM45.3812 179.947C47.3095 178.814 49.5715 178.24 52.184 178.24L52.184 177.24C49.4205 177.24 46.9784 177.849 44.8748 179.085L45.3812 179.947ZM43.956 191.132C43.956 192.929 44.4672 194.47 45.5119 195.724L46.2801 195.084C45.4048 194.033 44.956 192.727 44.956 191.132L43.956 191.132ZM45.5119 195.724C46.5596 196.981 47.9873 197.738 49.756 198.01L49.908 197.022C48.3487 196.782 47.1524 196.131 46.2801 195.084L45.5119 195.724ZM50.332 197.516L50.332 184.796L49.332 184.796L49.332 197.516L50.332 197.516ZM49.7545 184.302C48.0157 184.575 46.6057 185.333 45.5599 186.588L46.3281 187.228C47.2023 186.179 48.3843 185.529 49.9095 185.29L49.7545 184.302ZM45.5651 186.582C44.4874 187.833 43.956 189.36 43.956 191.132L44.956 191.132C44.956 189.575 45.4166 188.287 46.3229 187.234L45.5651 186.582ZM63.704 165.795L64.146 166.029L64.1499 166.021L63.704 165.795ZM58.952 170.931L59.2103 171.359L59.2152 171.356L58.952 170.931ZM45.224 170.931L44.9608 171.356L44.9657 171.359L45.224 170.931ZM40.52 165.795L40.9646 165.566L40.9633 165.563L40.52 165.795ZM40.52 151.251L40.9542 151.499L40.9587 151.491L40.52 151.251ZM45.368 146.787L45.8085 146.55L45.5898 146.143L45.1669 146.329L45.368 146.787ZM48.488 152.595L48.7348 153.029L49.1596 152.788L48.9285 152.358L48.488 152.595ZM46.856 163.251L46.5024 163.604L46.856 163.251ZM55.688 152.595L55.249 152.355L55.0112 152.791L55.4457 153.032L55.688 152.595ZM58.856 146.787L59.0624 146.331L58.6394 146.14L58.417 146.547L58.856 146.787ZM63.656 151.251L63.2202 151.496L63.2219 151.499L63.656 151.251ZM64.884 158.355C64.884 161.037 64.3387 163.438 63.2581 165.568L64.1499 166.021C65.3093 163.735 65.884 161.176 65.884 158.355L64.884 158.355ZM63.2621 165.561C62.15 167.661 60.6264 169.306 58.6888 170.505L59.2152 171.356C61.3096 170.059 62.954 168.28 64.1459 166.029L63.2621 165.561ZM58.6937 170.502C56.7624 171.667 54.5652 172.255 52.088 172.255L52.088 173.255C54.7308 173.255 57.1095 172.626 59.2102 171.359L58.6937 170.502ZM52.088 172.255C49.6108 172.255 47.4135 171.667 45.4822 170.502L44.9657 171.359C47.0664 172.626 49.4452 173.255 52.088 173.255L52.088 172.255ZM45.4872 170.505C43.5509 169.307 42.0444 167.664 40.9646 165.566L40.0754 166.023C41.2356 168.277 42.8651 170.058 44.9608 171.356L45.4872 170.505ZM40.9633 165.563C39.8523 163.434 39.292 161.035 39.292 158.355L38.292 158.355C38.292 161.179 38.8837 163.739 40.0767 166.026L40.9633 165.563ZM39.292 158.355C39.292 155.707 39.8522 153.427 40.9541 151.499L40.0859 151.003C38.8838 153.106 38.292 155.563 38.292 158.355L39.292 158.355ZM40.9587 151.491C42.0264 149.538 43.5595 148.127 45.5691 147.244L45.1669 146.329C42.9525 147.302 41.2536 148.867 40.0813 151.011L40.9587 151.491ZM44.9275 147.023L48.0475 152.831L48.9285 152.358L45.8085 146.55L44.9275 147.023ZM48.2412 152.16C45.7314 153.584 44.436 155.678 44.436 158.403L45.436 158.403C45.436 156.071 46.5085 154.293 48.7348 153.029L48.2412 152.16ZM44.436 158.403C44.436 160.476 45.1209 162.223 46.5024 163.604L47.2095 162.897C46.0311 161.719 45.436 160.233 45.436 158.403L44.436 158.403ZM46.5024 163.604C47.8961 164.998 49.7784 165.671 52.088 165.671L52.088 164.671C49.9816 164.671 48.3759 164.063 47.2095 162.897L46.5024 163.604ZM52.088 165.671C54.3976 165.671 56.2799 164.998 57.6735 163.604L56.9664 162.897C55.8001 164.063 54.1944 164.671 52.088 164.671L52.088 165.671ZM57.6735 163.604C59.0551 162.223 59.74 160.476 59.74 158.403L58.74 158.403C58.74 160.233 58.1449 161.719 56.9664 162.897L57.6735 163.604ZM59.74 158.403C59.74 157.043 59.4245 155.826 58.7785 154.77C58.1335 153.715 57.1753 152.847 55.9303 152.157L55.4457 153.032C56.5686 153.654 57.3865 154.41 57.9254 155.291C58.4635 156.171 58.74 157.203 58.74 158.403L59.74 158.403ZM56.1269 152.834L59.2949 147.026L58.417 146.547L55.249 152.355L56.1269 152.834ZM58.6496 147.242C60.5962 148.124 62.1179 149.536 63.2202 151.496L64.0918 151.005C62.8901 148.869 61.2118 147.305 59.0624 146.331L58.6496 147.242ZM63.2219 151.499C64.3238 153.427 64.884 155.707 64.884 158.355L65.884 158.355C65.884 155.563 65.2922 153.106 64.0901 151.003L63.2219 151.499ZM63.752 123.524L64.1541 123.227L63.9284 122.922L63.5736 123.057L63.752 123.524ZM65 126.26L65.486 126.142L65.4833 126.132L65 126.26ZM63.032 136.772L63.3959 137.115L63.3991 137.112L63.032 136.772ZM45.512 139.268L45.512 138.768L45.012 138.768L45.012 139.268L45.512 139.268ZM45.512 143.252L45.512 143.752L46.012 143.752L46.012 143.252L45.512 143.252ZM39.752 143.252L39.252 143.252L39.252 143.752L39.752 143.752L39.752 143.252ZM39.752 139.268L40.252 139.268L40.252 138.768L39.752 138.768L39.752 139.268ZM33.464 139.268L32.964 139.268L32.964 139.768L33.464 139.768L33.464 139.268ZM33.464 131.78L33.464 131.28L32.964 131.28L32.964 131.78L33.464 131.78ZM39.752 131.78L39.752 132.28L40.252 132.28L40.252 131.78L39.752 131.78ZM39.752 125.348L39.752 124.848L39.252 124.848L39.252 125.348L39.752 125.348ZM45.512 125.348L46.012 125.348L46.012 124.848L45.512 124.848L45.512 125.348ZM45.512 131.78L45.012 131.78L45.012 132.28L45.512 132.28L45.512 131.78ZM58.568 130.964L58.9014 131.337L58.9117 131.328L58.9215 131.318L58.568 130.964ZM58.472 125.54L58.2936 125.073L57.6662 125.313L58.0757 125.845L58.472 125.54ZM63.3499 123.821C63.8488 124.496 64.2412 125.348 64.5166 126.388L65.4833 126.132C65.1828 124.997 64.7431 124.024 64.1541 123.227L63.3499 123.821ZM64.5141 126.378C64.7599 127.392 64.884 128.472 64.884 129.62L65.884 129.62C65.884 128.4 65.7521 127.24 65.4859 126.142L64.5141 126.378ZM64.884 129.62C64.884 132.609 64.1224 134.856 62.6649 136.433L63.3991 137.112C65.0775 135.296 65.884 132.776 65.884 129.62L64.884 129.62ZM62.6681 136.429C61.2228 137.963 59.0696 138.768 56.12 138.768L56.12 139.768C59.2504 139.768 61.7052 138.909 63.3959 137.115L62.6681 136.429ZM56.12 138.768L45.512 138.768L45.512 139.768L56.12 139.768L56.12 138.768ZM45.012 139.268L45.012 143.252L46.012 143.252L46.012 139.268L45.012 139.268ZM45.512 142.752L39.752 142.752L39.752 143.752L45.512 143.752L45.512 142.752ZM40.252 143.252L40.252 139.268L39.252 139.268L39.252 143.252L40.252 143.252ZM39.752 138.768L33.464 138.768L33.464 139.768L39.752 139.768L39.752 138.768ZM33.964 139.268L33.964 131.78L32.964 131.78L32.964 139.268L33.964 139.268ZM33.464 132.28L39.752 132.28L39.752 131.28L33.464 131.28L33.464 132.28ZM40.252 131.78L40.252 125.348L39.252 125.348L39.252 131.78L40.252 131.78ZM39.752 125.848L45.512 125.848L45.512 124.848L39.752 124.848L39.752 125.848ZM45.012 125.348L45.012 131.78L46.012 131.78L46.012 125.348L45.012 125.348ZM45.512 132.28L56.024 132.28L56.024 131.28L45.512 131.28L45.512 132.28ZM56.024 132.28C57.1933 132.28 58.1748 131.987 58.9014 131.337L58.2346 130.592C57.7452 131.029 57.0307 131.28 56.024 131.28L56.024 132.28ZM58.9215 131.318C59.614 130.625 59.932 129.685 59.932 128.564L58.932 128.564C58.932 129.492 58.674 130.151 58.2144 130.611L58.9215 131.318ZM59.932 128.564C59.932 127.285 59.5841 126.166 58.8683 125.235L58.0757 125.845C58.6399 126.579 58.932 127.476 58.932 128.564L59.932 128.564ZM58.6503 126.007L63.9303 123.991L63.5736 123.057L58.2936 125.073L58.6503 126.007ZM87.472 292.752L87.9058 293.001L87.9104 292.992L87.472 292.752ZM92.128 288.096L92.3708 288.533L92.3738 288.531L92.128 288.096ZM106.096 288.096L106.342 287.661L106.339 287.659L106.096 288.096ZM110.752 292.752L111.189 292.509L111.187 292.506L110.752 292.752ZM109.264 307.056L108.928 306.686L107.969 307.556L109.264 307.556L109.264 307.056ZM121.312 307.056L121.812 307.056L121.812 306.556L121.312 306.556L121.312 307.056ZM121.312 314.544L121.312 315.044L121.812 315.044L121.812 314.544L121.312 314.544ZM86.176 314.544L85.676 314.544L85.676 315.044L86.176 315.044L86.176 314.544ZM86.176 307.392L86.176 306.892L85.676 306.892L85.676 307.392L86.176 307.392ZM89.152 307.392L89.152 307.892L90.5391 307.892L89.471 307.007L89.152 307.392ZM104.32 295.872L103.975 296.234L103.976 296.234L104.32 295.872ZM93.904 295.872L94.244 296.239L94.2531 296.23L93.904 295.872ZM93.904 305.328L93.5594 305.69L93.5596 305.69L93.904 305.328ZM104.32 305.328L104.66 305.695L104.669 305.686L104.32 305.328ZM86.292 299.28C86.292 296.961 86.832 294.872 87.9057 293.001L87.0383 292.503C85.872 294.536 85.292 296.799 85.292 299.28L86.292 299.28ZM87.9104 292.992C88.9521 291.093 90.4356 289.608 92.3708 288.533L91.8852 287.659C89.7884 288.824 88.1678 290.443 87.0336 292.512L87.9104 292.992ZM92.3738 288.531C94.2712 287.46 96.5037 286.916 99.088 286.916L99.088 285.916C96.3603 285.916 93.9528 286.492 91.8822 287.661L92.3738 288.531ZM99.088 286.916C101.672 286.916 103.922 287.46 105.853 288.533L106.339 287.659C104.238 286.492 101.816 285.916 99.088 285.916L99.088 286.916ZM105.85 288.531C107.755 289.607 109.241 291.093 110.317 292.998L111.187 292.506C110.023 290.443 108.405 288.825 106.342 287.661L105.85 288.531ZM110.315 292.995C111.359 294.868 111.884 296.959 111.884 299.28L112.884 299.28C112.884 296.801 112.321 294.54 111.189 292.509L110.315 292.995ZM111.884 299.28C111.884 302.462 110.885 304.909 108.928 306.686L109.6 307.426C111.803 305.427 112.884 302.69 112.884 299.28L111.884 299.28ZM109.264 307.556L121.312 307.556L121.312 306.556L109.264 306.556L109.264 307.556ZM120.812 307.056L120.812 314.544L121.812 314.544L121.812 307.056L120.812 307.056ZM121.312 314.044L86.176 314.044L86.176 315.044L121.312 315.044L121.312 314.044ZM86.676 314.544L86.676 307.392L85.676 307.392L85.676 314.544L86.676 314.544ZM86.176 307.892L89.152 307.892L89.152 306.892L86.176 306.892L86.176 307.892ZM89.471 307.007C87.3708 305.267 86.292 302.719 86.292 299.28L85.292 299.28C85.292 302.945 86.4532 305.805 88.833 307.777L89.471 307.007ZM106.74 300.576C106.74 298.532 106.053 296.829 104.664 295.509L103.976 296.234C105.147 297.347 105.74 298.78 105.74 300.576L106.74 300.576ZM104.665 295.51C103.241 294.156 101.365 293.5 99.088 293.5L99.088 294.5C101.163 294.5 102.775 295.092 103.975 296.234L104.665 295.51ZM99.088 293.5C96.8116 293.5 94.9478 294.156 93.5549 295.514L94.2531 296.23C95.4202 295.092 97.0124 294.5 99.088 294.5L99.088 293.5ZM93.5641 295.505C92.1419 296.823 91.436 298.528 91.436 300.576L92.436 300.576C92.436 298.784 93.0421 297.353 94.2439 296.239L93.5641 295.505ZM91.436 300.576C91.436 302.624 92.1417 304.342 93.5594 305.69L94.2486 304.966C93.0423 303.818 92.436 302.368 92.436 300.576L91.436 300.576ZM93.5596 305.69C94.953 307.014 96.8152 307.652 99.088 307.652L99.088 306.652C97.0088 306.652 95.415 306.074 94.2484 304.965L93.5596 305.69ZM99.088 307.652C101.361 307.652 103.236 307.014 104.66 305.695L103.98 304.961C102.78 306.074 101.167 306.652 99.088 306.652L99.088 307.652ZM104.669 305.686C106.053 304.336 106.74 302.62 106.74 300.576L105.74 300.576C105.74 302.372 105.147 303.824 103.971 304.97L104.669 305.686ZM89.584 272.331L89.584 272.831L91.1378 272.831L89.8756 271.925L89.584 272.331ZM86.752 268.731L86.2904 268.924L86.2919 268.927L86.752 268.731ZM85.792 263.451L85.792 262.951L85.292 262.951L85.292 263.451L85.792 263.451ZM92.704 263.451L93.2025 263.49L93.2439 262.951L92.704 262.951L92.704 263.451ZM94.432 270.171L94.7903 269.823L94.7856 269.818L94.432 270.171ZM112 271.995L112.5 271.995L112.5 271.495L112 271.495L112 271.995ZM112 279.483L112 279.983L112.5 279.983L112.5 279.483L112 279.483ZM86.176 279.483L85.676 279.483L85.676 279.983L86.176 279.983L86.176 279.483ZM86.176 272.331L86.176 271.831L85.676 271.831L85.676 272.331L86.176 272.331ZM89.8756 271.925C88.7068 271.086 87.8186 269.961 87.2121 268.536L86.2919 268.927C86.9654 270.51 87.9652 271.785 89.2924 272.738L89.8756 271.925ZM87.2135 268.539C86.6033 267.075 86.292 265.382 86.292 263.451L85.292 263.451C85.292 265.489 85.6207 267.316 86.2905 268.924L87.2135 268.539ZM85.792 263.951L92.704 263.951L92.704 262.951L85.792 262.951L85.792 263.951ZM92.2055 263.413C92.1417 264.242 92.108 264.821 92.108 265.131L93.108 265.131C93.108 264.866 93.1383 264.324 93.2025 263.49L92.2055 263.413ZM92.108 265.131C92.108 267.373 92.7468 269.193 94.0784 270.525L94.7856 269.818C93.6852 268.718 93.108 267.177 93.108 265.131L92.108 265.131ZM94.0738 270.52C95.3852 271.867 97.3298 272.495 99.808 272.495L99.808 271.495C97.4862 271.495 95.8468 270.908 94.7902 269.823L94.0738 270.52ZM99.808 272.495L112 272.495L112 271.495L99.808 271.495L99.808 272.495ZM111.5 271.995L111.5 279.483L112.5 279.483L112.5 271.995L111.5 271.995ZM112 278.983L86.176 278.983L86.176 279.983L112 279.983L112 278.983ZM86.676 279.483L86.676 272.331L85.676 272.331L85.676 279.483L86.676 279.483ZM86.176 272.831L89.584 272.831L89.584 271.831L86.176 271.831L86.176 272.831ZM110.704 252.369L111.145 252.606L111.149 252.598L110.704 252.369ZM105.952 257.409L106.21 257.838L105.952 257.409ZM92.224 257.409L91.9657 257.838L92.224 257.409ZM87.52 252.369L87.9632 252.138L87.9619 252.135L87.52 252.369ZM87.52 237.729L87.9605 237.966L87.9632 237.961L87.52 237.729ZM92.224 232.689L91.9657 232.261L92.224 232.689ZM105.952 232.689L106.21 232.261L105.952 232.689ZM110.704 237.729L111.147 237.498L111.144 237.493L110.704 237.729ZM104.32 240.321L103.975 240.684L103.976 240.684L104.32 240.321ZM93.904 240.321L94.244 240.688L94.253 240.679L93.904 240.321ZM93.904 249.777L94.2531 249.419L94.2486 249.415L93.904 249.777ZM104.32 249.777L104.665 250.14L104.669 250.135L104.32 249.777ZM111.884 245.025C111.884 247.675 111.339 250.043 110.259 252.141L111.149 252.598C112.309 250.344 112.884 247.816 112.884 245.025L111.884 245.025ZM110.264 252.133C109.153 254.2 107.63 255.813 105.694 256.981L106.21 257.838C108.306 256.574 109.951 254.826 111.144 252.606L110.264 252.133ZM105.694 256.981C103.762 258.146 101.565 258.733 99.088 258.733L99.088 259.733C101.731 259.733 104.11 259.105 106.21 257.838L105.694 256.981ZM99.088 258.733C96.6108 258.733 94.4135 258.146 92.4822 256.981L91.9657 257.838C94.0664 259.105 96.4452 259.733 99.088 259.733L99.088 258.733ZM92.4822 256.981C90.547 255.814 89.0419 254.203 87.9632 252.138L87.0768 252.601C88.238 254.824 89.869 256.573 91.9657 257.838L92.4822 256.981ZM87.9619 252.135C86.8519 250.039 86.292 247.673 86.292 245.025L85.292 245.025C85.292 247.818 85.8841 250.348 87.0781 252.603L87.9619 252.135ZM86.292 245.025C86.292 242.378 86.852 240.029 87.9604 237.966L87.0795 237.493C85.884 239.718 85.292 242.233 85.292 245.025L86.292 245.025ZM87.9632 237.961C89.0419 235.896 90.547 234.285 92.4822 233.118L91.9657 232.261C89.869 233.526 88.238 235.275 87.0768 237.498L87.9632 237.961ZM92.4822 233.118C94.4135 231.953 96.6108 231.365 99.088 231.365L99.088 230.365C96.4452 230.365 94.0664 230.994 91.9657 232.261L92.4822 233.118ZM99.088 231.365C101.565 231.365 103.762 231.953 105.694 233.118L106.21 232.261C104.11 230.994 101.731 230.365 99.088 230.365L99.088 231.365ZM105.694 233.118C107.63 234.286 109.153 235.898 110.264 237.966L111.144 237.493C109.951 235.272 108.306 233.525 106.21 232.261L105.694 233.118ZM110.261 237.961C111.339 240.025 111.884 242.376 111.884 245.025L112.884 245.025C112.884 242.235 112.309 239.722 111.147 237.498L110.261 237.961ZM106.74 245.025C106.74 242.982 106.053 241.278 104.664 239.959L103.976 240.684C105.147 241.797 105.74 243.229 105.74 245.025L106.74 245.025ZM104.665 239.959C103.241 238.605 101.365 237.949 99.088 237.949L99.088 238.949C101.163 238.949 102.775 239.541 103.975 240.684L104.665 239.959ZM99.088 237.949C96.8116 237.949 94.9478 238.605 93.5549 239.963L94.253 240.679C95.4202 239.541 97.0123 238.949 99.088 238.949L99.088 237.949ZM93.5641 239.955C92.1419 241.273 91.436 242.978 91.436 245.025L92.436 245.025C92.436 243.233 93.0421 241.802 94.2439 240.688L93.5641 239.955ZM91.436 245.025C91.436 247.073 92.1417 248.791 93.5594 250.14L94.2486 249.415C93.0423 248.268 92.436 246.818 92.436 245.025L91.436 245.025ZM93.5549 250.135C94.9478 251.493 96.8116 252.149 99.088 252.149L99.088 251.149C97.0123 251.149 95.4202 250.557 94.253 249.419L93.5549 250.135ZM99.088 252.149C101.365 252.149 103.241 251.493 104.665 250.14L103.975 249.415C102.775 250.557 101.163 251.149 99.088 251.149L99.088 252.149ZM104.669 250.135C106.053 248.786 106.74 247.069 106.74 245.025L105.74 245.025C105.74 246.822 105.147 248.273 103.971 249.419L104.669 250.135ZM87.472 202.148L87.9058 202.397L87.9104 202.389L87.472 202.148ZM92.128 197.492L92.3708 197.929L92.3738 197.928L92.128 197.492ZM106.096 197.492L106.342 197.057L106.339 197.055L106.096 197.492ZM110.752 202.148L111.189 201.905L111.187 201.902L110.752 202.148ZM109.264 216.452L108.928 216.082L107.969 216.952L109.264 216.952L109.264 216.452ZM121.312 216.452L121.812 216.452L121.812 215.952L121.312 215.952L121.312 216.452ZM121.312 223.94L121.312 224.44L121.812 224.44L121.812 223.94L121.312 223.94ZM86.176 223.94L85.676 223.94L85.676 224.44L86.176 224.44L86.176 223.94ZM86.176 216.788L86.176 216.288L85.676 216.288L85.676 216.788L86.176 216.788ZM89.152 216.788L89.152 217.288L90.5391 217.288L89.471 216.403L89.152 216.788ZM104.32 205.268L103.975 205.631L103.976 205.631L104.32 205.268ZM93.904 205.268L94.244 205.635L94.253 205.626L93.904 205.268ZM93.904 214.724L93.5594 215.087L93.5596 215.087L93.904 214.724ZM104.32 214.724L104.66 215.091L104.669 215.082L104.32 214.724ZM86.292 208.676C86.292 206.358 86.832 204.268 87.9057 202.397L87.0383 201.899C85.872 203.932 85.292 206.195 85.292 208.676L86.292 208.676ZM87.9104 202.389C88.9521 200.489 90.4356 199.004 92.3708 197.929L91.8852 197.055C89.7884 198.22 88.1678 199.839 87.0336 201.908L87.9104 202.389ZM92.3738 197.928C94.2712 196.857 96.5037 196.312 99.088 196.312L99.088 195.312C96.3603 195.312 93.9528 195.888 91.8822 197.057L92.3738 197.928ZM99.088 196.312C101.672 196.312 103.922 196.856 105.853 197.929L106.339 197.055C104.238 195.888 101.816 195.312 99.088 195.312L99.088 196.312ZM105.85 197.928C107.755 199.003 109.241 200.489 110.317 202.394L111.187 201.902C110.023 199.839 108.405 198.222 106.342 197.057L105.85 197.928ZM110.315 202.392C111.359 204.264 111.884 206.355 111.884 208.676L112.884 208.676C112.884 206.198 112.321 203.937 111.189 201.905L110.315 202.392ZM111.884 208.676C111.884 211.858 110.885 214.305 108.928 216.082L109.6 216.822C111.803 214.823 112.884 212.086 112.884 208.676L111.884 208.676ZM109.264 216.952L121.312 216.952L121.312 215.952L109.264 215.952L109.264 216.952ZM120.812 216.452L120.812 223.94L121.812 223.94L121.812 216.452L120.812 216.452ZM121.312 223.44L86.176 223.44L86.176 224.44L121.312 224.44L121.312 223.44ZM86.676 223.94L86.676 216.788L85.676 216.788L85.676 223.94L86.676 223.94ZM86.176 217.288L89.152 217.288L89.152 216.288L86.176 216.288L86.176 217.288ZM89.471 216.403C87.3708 214.663 86.292 212.115 86.292 208.676L85.292 208.676C85.292 212.341 86.4532 215.201 88.833 217.173L89.471 216.403ZM106.74 209.972C106.74 207.929 106.053 206.225 104.664 204.906L103.976 205.631C105.147 206.744 105.74 208.176 105.74 209.972L106.74 209.972ZM104.665 204.906C103.241 203.552 101.365 202.896 99.088 202.896L99.088 203.896C101.163 203.896 102.775 204.488 103.975 205.631L104.665 204.906ZM99.088 202.896C96.8116 202.896 94.9478 203.552 93.5549 204.91L94.253 205.626C95.4202 204.488 97.0123 203.896 99.088 203.896L99.088 202.896ZM93.5641 204.902C92.1419 206.22 91.436 207.924 91.436 209.972L92.436 209.972C92.436 208.18 93.0421 206.749 94.2439 205.635L93.5641 204.902ZM91.436 209.972C91.436 212.02 92.1417 213.738 93.5594 215.087L94.2486 214.362C93.0423 213.215 92.436 211.765 92.436 209.972L91.436 209.972ZM93.5596 215.087C94.953 216.41 96.8152 217.048 99.088 217.048L99.088 216.048C97.0088 216.048 95.415 215.47 94.2484 214.362L93.5596 215.087ZM99.088 217.048C101.361 217.048 103.236 216.41 104.66 215.091L103.98 214.358C102.78 215.47 101.167 216.048 99.088 216.048L99.088 217.048ZM104.669 215.082C106.053 213.733 106.74 212.016 106.74 209.972L105.74 209.972C105.74 211.769 105.147 213.22 103.971 214.366L104.669 215.082ZM110.704 183.936L111.145 184.172L111.149 184.164L110.704 183.936ZM105.952 188.976L106.21 189.404L105.952 188.976ZM92.224 188.976L91.9657 189.404L92.224 188.976ZM87.52 183.936L87.9632 183.704L87.9619 183.702L87.52 183.936ZM87.52 169.296L87.9605 169.532L87.9632 169.527L87.52 169.296ZM92.224 164.256L91.9657 163.827L92.224 164.256ZM105.952 164.256L106.21 163.827L105.952 164.256ZM110.704 169.296L111.147 169.064L111.144 169.059L110.704 169.296ZM104.32 171.888L103.975 172.25L103.976 172.25L104.32 171.888ZM93.904 171.888L94.244 172.254L94.253 172.246L93.904 171.888ZM93.904 181.344L94.2531 180.986L94.2486 180.981L93.904 181.344ZM104.32 181.344L104.665 181.706L104.669 181.702L104.32 181.344ZM111.884 176.592C111.884 179.241 111.339 181.609 110.259 183.707L111.149 184.164C112.309 181.91 112.884 179.382 112.884 176.592L111.884 176.592ZM110.264 183.699C109.153 185.767 107.63 187.379 105.694 188.547L106.21 189.404C108.306 188.14 109.951 186.392 111.144 184.172L110.264 183.699ZM105.694 188.547C103.762 189.712 101.565 190.3 99.088 190.3L99.088 191.3C101.731 191.3 104.11 190.671 106.21 189.404L105.694 188.547ZM99.088 190.3C96.6108 190.3 94.4135 189.712 92.4822 188.547L91.9657 189.404C94.0664 190.671 96.4452 191.3 99.088 191.3L99.088 190.3ZM92.4822 188.547C90.547 187.38 89.0419 185.769 87.9632 183.704L87.0768 184.167C88.238 186.39 89.869 188.139 91.9657 189.404L92.4822 188.547ZM87.9619 183.702C86.8519 181.605 86.292 179.239 86.292 176.592L85.292 176.592C85.292 179.384 85.8841 181.914 87.0781 184.17L87.9619 183.702ZM86.292 176.592C86.292 173.944 86.852 171.595 87.9604 169.532L87.0795 169.059C85.884 171.284 85.292 173.799 85.292 176.592L86.292 176.592ZM87.9632 169.527C89.0419 167.462 90.547 165.851 92.4822 164.684L91.9657 163.827C89.869 165.092 88.238 166.841 87.0768 169.064L87.9632 169.527ZM92.4822 164.684C94.4135 163.519 96.6108 162.932 99.088 162.932L99.088 161.932C96.4452 161.932 94.0664 162.56 91.9657 163.827L92.4822 164.684ZM99.088 162.932C101.565 162.932 103.762 163.519 105.694 164.684L106.21 163.827C104.11 162.56 101.731 161.932 99.088 161.932L99.088 162.932ZM105.694 164.684C107.63 165.852 109.153 167.465 110.264 169.532L111.144 169.059C109.951 166.839 108.306 165.091 106.21 163.827L105.694 164.684ZM110.261 169.527C111.339 171.591 111.884 173.942 111.884 176.592L112.884 176.592C112.884 173.801 112.309 171.288 111.147 169.064L110.261 169.527ZM106.74 176.592C106.74 174.548 106.053 172.844 104.664 171.525L103.976 172.25C105.147 173.363 105.74 174.795 105.74 176.592L106.74 176.592ZM104.665 171.525C103.241 170.172 101.365 169.516 99.088 169.516L99.088 170.516C101.163 170.516 102.774 171.108 103.975 172.25L104.665 171.525ZM99.088 169.516C96.8116 169.516 94.9478 170.172 93.5549 171.53L94.253 172.246C95.4202 171.108 97.0123 170.516 99.088 170.516L99.088 169.516ZM93.5641 171.521C92.1419 172.839 91.436 174.544 91.436 176.592L92.436 176.592C92.436 174.799 93.0421 173.368 94.2439 172.254L93.5641 171.521ZM91.436 176.592C91.436 178.639 92.1417 180.357 93.5594 181.706L94.2486 180.981C93.0423 179.834 92.436 178.384 92.436 176.592L91.436 176.592ZM93.5549 181.702C94.9478 183.06 96.8116 183.716 99.088 183.716L99.088 182.716C97.0123 182.716 95.4202 182.124 94.253 180.986L93.5549 181.702ZM99.088 183.716C101.365 183.716 103.241 183.06 104.665 181.706L103.975 180.981C102.774 182.124 101.163 182.716 99.088 182.716L99.088 183.716ZM104.669 181.702C106.053 180.352 106.74 178.635 106.74 176.592L105.74 176.592C105.74 178.388 105.147 179.839 103.971 180.986L104.669 181.702ZM89.584 148.354L89.584 148.854L91.1377 148.854L89.8756 147.948L89.584 148.354ZM86.752 144.754L86.2904 144.947L86.2919 144.95L86.752 144.754ZM85.792 139.474L85.792 138.974L85.292 138.974L85.292 139.474L85.792 139.474ZM92.704 139.474L93.2025 139.513L93.2439 138.974L92.704 138.974L92.704 139.474ZM94.432 146.194L94.7903 145.846L94.7855 145.841L94.432 146.194ZM112 148.018L112.5 148.018L112.5 147.518L112 147.518L112 148.018ZM112 155.506L112 156.006L112.5 156.006L112.5 155.506L112 155.506ZM86.176 155.506L85.676 155.506L85.676 156.006L86.176 156.006L86.176 155.506ZM86.176 148.354L86.176 147.854L85.676 147.854L85.676 148.354L86.176 148.354ZM89.8756 147.948C88.7067 147.109 87.8186 145.984 87.2121 144.559L86.2919 144.95C86.9654 146.533 87.9652 147.808 89.2924 148.761L89.8756 147.948ZM87.2135 144.562C86.6033 143.098 86.292 141.405 86.292 139.474L85.292 139.474C85.292 141.512 85.6207 143.339 86.2905 144.947L87.2135 144.562ZM85.792 139.974L92.704 139.974L92.704 138.974L85.792 138.974L85.792 139.974ZM92.2055 139.436C92.1417 140.265 92.108 140.844 92.108 141.154L93.108 141.154C93.108 140.889 93.1383 140.348 93.2025 139.513L92.2055 139.436ZM92.108 141.154C92.108 143.397 92.7468 145.216 94.0784 146.548L94.7855 145.841C93.6852 144.741 93.108 143.2 93.108 141.154L92.108 141.154ZM94.0738 146.543C95.3852 147.89 97.3298 148.518 99.808 148.518L99.808 147.518C97.4862 147.518 95.8468 146.931 94.7902 145.846L94.0738 146.543ZM99.808 148.518L112 148.518L112 147.518L99.808 147.518L99.808 148.518ZM111.5 148.018L111.5 155.506L112.5 155.506L112.5 148.018L111.5 148.018ZM112 155.006L86.176 155.006L86.176 156.006L112 156.006L112 155.006ZM86.676 155.506L86.676 148.354L85.676 148.354L85.676 155.506L86.676 155.506ZM86.176 148.854L89.584 148.854L89.584 147.854L86.176 147.854L86.176 148.854ZM110.752 115.555L111.154 115.258L110.928 114.953L110.574 115.088L110.752 115.555ZM112 118.291L112.486 118.174L112.483 118.164L112 118.291ZM110.032 128.803L110.396 129.146L110.399 129.143L110.032 128.803ZM92.512 131.299L92.512 130.799L92.012 130.799L92.012 131.299L92.512 131.299ZM92.512 135.283L92.512 135.783L93.012 135.783L93.012 135.283L92.512 135.283ZM86.752 135.283L86.252 135.283L86.252 135.783L86.752 135.783L86.752 135.283ZM86.752 131.299L87.252 131.299L87.252 130.799L86.752 130.799L86.752 131.299ZM80.464 131.299L79.964 131.299L79.964 131.799L80.464 131.799L80.464 131.299ZM80.464 123.811L80.464 123.311L79.964 123.311L79.964 123.811L80.464 123.811ZM86.752 123.811L86.752 124.311L87.252 124.311L87.252 123.811L86.752 123.811ZM86.752 117.379L86.752 116.879L86.252 116.879L86.252 117.379L86.752 117.379ZM92.512 117.379L93.012 117.379L93.012 116.879L92.512 116.879L92.512 117.379ZM92.512 123.811L92.012 123.811L92.012 124.311L92.512 124.311L92.512 123.811ZM105.568 122.995L105.901 123.368L105.912 123.359L105.922 123.349L105.568 122.995ZM105.472 117.571L105.294 117.104L104.666 117.344L105.076 117.876L105.472 117.571ZM110.35 115.853C110.849 116.528 111.241 117.379 111.517 118.419L112.483 118.164C112.183 117.028 111.743 116.055 111.154 115.258L110.35 115.853ZM111.514 118.409C111.76 119.423 111.884 120.504 111.884 121.651L112.884 121.651C112.884 120.431 112.752 119.272 112.486 118.174L111.514 118.409ZM111.884 121.651C111.884 124.64 111.122 126.887 109.665 128.464L110.399 129.143C112.078 127.327 112.884 124.807 112.884 121.651L111.884 121.651ZM109.668 128.461C108.223 129.994 106.07 130.799 103.12 130.799L103.12 131.799C106.25 131.799 108.705 130.941 110.396 129.146L109.668 128.461ZM103.12 130.799L92.512 130.799L92.512 131.799L103.12 131.799L103.12 130.799ZM92.012 131.299L92.012 135.283L93.012 135.283L93.012 131.299L92.012 131.299ZM92.512 134.783L86.752 134.783L86.752 135.783L92.512 135.783L92.512 134.783ZM87.252 135.283L87.252 131.299L86.252 131.299L86.252 135.283L87.252 135.283ZM86.752 130.799L80.464 130.799L80.464 131.799L86.752 131.799L86.752 130.799ZM80.964 131.299L80.964 123.811L79.964 123.811L79.964 131.299L80.964 131.299ZM80.464 124.311L86.752 124.311L86.752 123.311L80.464 123.311L80.464 124.311ZM87.252 123.811L87.252 117.379L86.252 117.379L86.252 123.811L87.252 123.811ZM86.752 117.879L92.512 117.879L92.512 116.879L86.752 116.879L86.752 117.879ZM92.012 117.379L92.012 123.811L93.012 123.811L93.012 117.379L92.012 117.379ZM92.512 124.311L103.024 124.311L103.024 123.311L92.512 123.311L92.512 124.311ZM103.024 124.311C104.193 124.311 105.175 124.018 105.901 123.368L105.235 122.623C104.745 123.061 104.031 123.311 103.024 123.311L103.024 124.311ZM105.922 123.349C106.614 122.657 106.932 121.716 106.932 120.595L105.932 120.595C105.932 121.523 105.674 122.182 105.214 122.642L105.922 123.349ZM106.932 120.595C106.932 119.316 106.584 118.197 105.868 117.267L105.076 117.876C105.64 118.61 105.932 119.507 105.932 120.595L106.932 120.595ZM105.65 118.039L110.93 116.023L110.574 115.088L105.294 117.104L105.65 118.039ZM86.176 109.432L85.676 109.432L85.676 109.932L86.176 109.932L86.176 109.432ZM86.176 101.944L86.176 101.444L85.676 101.444L85.676 101.944L86.176 101.944ZM112 101.944L112.5 101.944L112.5 101.444L112 101.444L112 101.944ZM112 109.432L112 109.932L112.5 109.932L112.5 109.432L112 109.432ZM81.376 109.048L81.7429 109.388L81.7429 109.388L81.376 109.048ZM75.424 109.048L75.7909 108.708L75.424 109.048ZM75.376 102.328L75.7497 102.66L75.376 102.328ZM81.376 102.328L81.7429 101.988L81.7362 101.981L81.376 102.328ZM86.676 109.432L86.676 101.944L85.676 101.944L85.676 109.432L86.676 109.432ZM86.176 102.444L112 102.444L112 101.444L86.176 101.444L86.176 102.444ZM111.5 101.944L111.5 109.432L112.5 109.432L112.5 101.944L111.5 101.944ZM112 108.932L86.176 108.932L86.176 109.932L112 109.932L112 108.932ZM82.076 105.688C82.076 106.961 81.7093 107.952 81.0091 108.708L81.7429 109.388C82.6427 108.416 83.076 107.167 83.076 105.688L82.076 105.688ZM81.0091 108.708C80.3043 109.47 79.4456 109.844 78.4 109.844L78.4 110.844C79.7224 110.844 80.8476 110.355 81.7429 109.388L81.0091 108.708ZM78.4 109.844C77.3544 109.844 76.4956 109.47 75.7909 108.708L75.0571 109.388C75.9523 110.355 77.0776 110.844 78.4 110.844L78.4 109.844ZM75.7909 108.708C75.0907 107.952 74.724 106.961 74.724 105.688L73.724 105.688C73.724 107.167 74.1573 108.416 75.0571 109.388L75.7909 108.708ZM74.724 105.688C74.724 104.41 75.078 103.416 75.7497 102.66L75.0023 101.996C74.138 102.968 73.724 104.214 73.724 105.688L74.724 105.688ZM75.7497 102.66C76.4232 101.903 77.2474 101.532 78.256 101.532L78.256 100.532C76.9606 100.532 75.8648 101.026 75.0023 101.996L75.7497 102.66ZM78.256 101.532C79.3743 101.532 80.2823 101.913 81.0158 102.675L81.7362 101.981C80.8057 101.015 79.6337 100.532 78.256 100.532L78.256 101.532ZM81.0091 102.668C81.7093 103.424 82.076 104.415 82.076 105.688L83.076 105.688C83.076 104.209 82.6427 102.96 81.7429 101.988L81.0091 102.668ZM110.704 88.1306L111.145 88.3673L111.149 88.3594L110.704 88.1306ZM105.952 93.1706L106.21 93.5988L105.952 93.1706ZM92.224 93.1706L91.9657 93.5988L92.224 93.1706ZM87.52 88.1306L87.9632 87.8991L87.9619 87.8967L87.52 88.1306ZM87.52 73.4906L87.9605 73.7273L87.9632 73.7221L87.52 73.4906ZM92.224 68.4506L91.9657 68.0225L92.224 68.4506ZM105.952 68.4506L106.21 68.0225L105.952 68.4506ZM110.704 73.4906L111.147 73.2591L111.144 73.254L110.704 73.4906ZM104.32 76.0826L103.975 76.4449L103.976 76.4451L104.32 76.0826ZM93.904 76.0826L94.244 76.4495L94.253 76.4406L93.904 76.0826ZM93.904 85.5386L94.2531 85.1806L94.2486 85.1763L93.904 85.5386ZM104.32 85.5386L104.665 85.9009L104.669 85.8966L104.32 85.5386ZM111.884 80.7866C111.884 83.436 111.339 85.8042 110.259 87.9018L111.149 88.3594C112.309 86.1051 112.884 83.5772 112.884 80.7866L111.884 80.7866ZM110.264 87.894C109.153 89.9617 107.63 91.5744 105.694 92.7425L106.21 93.5988C108.306 92.3348 109.951 90.5875 111.144 88.3673L110.264 87.894ZM105.694 92.7425C103.762 93.9074 101.565 94.4946 99.088 94.4946L99.088 95.4946C101.731 95.4946 104.11 94.8659 106.21 93.5988L105.694 92.7425ZM99.088 94.4946C96.6108 94.4946 94.4135 93.9074 92.4822 92.7425L91.9657 93.5988C94.0664 94.8659 96.4452 95.4946 99.088 95.4946L99.088 94.4946ZM92.4822 92.7425C90.547 91.5752 89.0419 89.9642 87.9632 87.8991L87.0768 88.3621C88.238 90.585 89.869 92.3341 91.9657 93.5988L92.4822 92.7425ZM87.9619 87.8967C86.8519 85.8001 86.292 83.4338 86.292 80.7866L85.292 80.7866C85.292 83.5795 85.8841 86.1092 87.0781 88.3646L87.9619 87.8967ZM86.292 80.7866C86.292 78.1393 86.8519 75.7903 87.9604 73.7273L87.0795 73.254C85.884 75.4789 85.292 77.9939 85.292 80.7866L86.292 80.7866ZM87.9632 73.7221C89.0419 71.657 90.547 70.0461 92.4822 68.8788L91.9657 68.0225C89.869 69.2872 88.238 71.0362 87.0768 73.2591L87.9632 73.7221ZM92.4822 68.8788C94.4135 67.7138 96.6108 67.1266 99.088 67.1266L99.088 66.1266C96.4452 66.1266 94.0664 66.7554 91.9657 68.0225L92.4822 68.8788ZM99.088 67.1266C101.565 67.1266 103.762 67.7138 105.694 68.8788L106.21 68.0225C104.11 66.7554 101.731 66.1266 99.088 66.1266L99.088 67.1266ZM105.694 68.8788C107.63 70.0468 109.153 71.6595 110.264 73.7273L111.144 73.254C109.951 71.0337 108.306 69.2864 106.21 68.0225L105.694 68.8788ZM110.261 73.7221C111.339 75.7862 111.884 78.1371 111.884 80.7866L112.884 80.7866C112.884 77.9962 112.309 75.4831 111.147 73.2591L110.261 73.7221ZM106.74 80.7866C106.74 78.7429 106.053 77.0393 104.664 75.7201L103.976 76.4451C105.147 77.5579 105.74 78.9904 105.74 80.7866L106.74 80.7866ZM104.665 75.7203C103.241 74.3666 101.365 73.7106 99.088 73.7106L99.088 74.7106C101.163 74.7106 102.774 75.3026 103.975 76.4449L104.665 75.7203ZM99.088 73.7106C96.8116 73.7106 94.9478 74.3665 93.5549 75.7246L94.253 76.4406C95.4201 75.3027 97.0123 74.7106 99.088 74.7106L99.088 73.7106ZM93.5641 75.7159C92.1419 77.034 91.436 78.7389 91.436 80.7866L92.436 80.7866C92.436 78.9944 93.0421 77.5632 94.2439 76.4493L93.5641 75.7159ZM91.436 80.7866C91.436 82.8343 92.1417 84.5523 93.5594 85.9009L94.2486 85.1763C93.0423 84.0289 92.436 82.5789 92.436 80.7866L91.436 80.7866ZM93.5549 85.8966C94.9478 87.2547 96.8116 87.9106 99.088 87.9106L99.088 86.9106C97.0123 86.9106 95.4201 86.3186 94.253 85.1806L93.5549 85.8966ZM99.088 87.9106C101.365 87.9106 103.241 87.2546 104.665 85.9009L103.975 85.1763C102.774 86.3186 101.163 86.9106 99.088 86.9106L99.088 87.9106ZM104.669 85.8966C106.053 84.5471 106.74 82.8303 106.74 80.7866L105.74 80.7866C105.74 82.5829 105.147 84.0342 103.971 85.1806L104.669 85.8966ZM88.672 36.2775L89.0285 36.6281L89.0313 36.6252L88.672 36.2775ZM112 33.3015L112.5 33.3015L112.5 32.8015L112 32.8015L112 33.3015ZM112 40.7895L112 41.2895L112.5 41.2895L112.5 40.7895L112 40.7895ZM93.808 42.1335L94.1373 42.5098L94.1431 42.5045L93.808 42.1335ZM94.048 50.5335L94.3966 50.175L94.3916 50.1703L94.048 50.5335ZM112 52.2135L112.5 52.2135L112.5 51.7135L112 51.7135L112 52.2135ZM112 59.7015L112 60.2015L112.5 60.2015L112.5 59.7015L112 59.7015ZM86.176 59.7015L85.676 59.7015L85.676 60.2015L86.176 60.2015L86.176 59.7015ZM86.176 52.5495L86.176 52.0495L85.676 52.0495L85.676 52.5495L86.176 52.5495ZM89.2 52.5495L89.2 53.0495L90.4905 53.0495L89.5369 52.18L89.2 52.5495ZM86.704 48.8535L87.1697 48.6713L87.1661 48.6626L86.704 48.8535ZM86.292 44.0055C86.292 40.9128 87.2159 38.4709 89.0285 36.6281L88.3155 35.9269C86.2881 37.9881 85.292 40.6981 85.292 44.0055L86.292 44.0055ZM89.0313 36.6252C90.8266 34.7701 93.5242 33.8015 97.216 33.8015L97.216 32.8015C93.3558 32.8015 90.3574 33.8169 88.3127 35.9298L89.0313 36.6252ZM97.216 33.8015L112 33.8015L112 32.8015L97.216 32.8015L97.216 33.8015ZM111.5 33.3015L111.5 40.7895L112.5 40.7895L112.5 33.3015L111.5 33.3015ZM112 40.2895L98.368 40.2895L98.368 41.2895L112 41.2895L112 40.2895ZM98.368 40.2895C96.2598 40.2895 94.595 40.7489 93.4728 41.7624L94.1431 42.5045C95.005 41.7261 96.3802 41.2895 98.368 41.2895L98.368 40.2895ZM93.4787 41.7572C92.3203 42.7708 91.772 44.2197 91.772 46.0215L92.772 46.0215C92.772 44.4313 93.2476 43.2882 94.1372 42.5098L93.4787 41.7572ZM91.772 46.0215C91.772 48.0232 92.4045 49.6671 93.7044 50.8967L94.3916 50.1703C93.3235 49.1599 92.772 47.7958 92.772 46.0215L91.772 46.0215ZM93.6995 50.892C94.9787 52.1357 96.8544 52.7135 99.232 52.7135L99.232 51.7135C97.0016 51.7135 95.4213 51.1713 94.3965 50.175L93.6995 50.892ZM99.232 52.7135L112 52.7135L112 51.7135L99.232 51.7135L99.232 52.7135ZM111.5 52.2135L111.5 59.7015L112.5 59.7015L112.5 52.2135L111.5 52.2135ZM112 59.2015L86.176 59.2015L86.176 60.2015L112 60.2015L112 59.2015ZM86.676 59.7015L86.676 52.5495L85.676 52.5495L85.676 59.7015L86.676 59.7015ZM86.176 53.0495L89.2 53.0495L89.2 52.0495L86.176 52.0495L86.176 53.0495ZM89.5369 52.18C88.5097 51.2435 87.7197 50.0772 87.1696 48.6713L86.2384 49.0357C86.8402 50.5738 87.7143 51.8715 88.8631 52.919L89.5369 52.18ZM87.1661 48.6626C86.5856 47.2572 86.292 45.7069 86.292 44.0055L85.292 44.0055C85.292 45.8241 85.6063 47.5058 86.2419 49.0444L87.1661 48.6626ZM111.616 22.194L112.099 22.3224L112.101 22.3152L111.616 22.194ZM109.6 27.09L109.389 27.5435L109.781 27.7251L110.018 27.3648L109.6 27.09ZM104.224 24.594L103.803 24.3248L103.495 24.8067L104.013 25.0475L104.224 24.594ZM106.048 20.418L106.528 20.5591L106.53 20.5504L106.048 20.418ZM102.784 12.162L103.253 12.3356L102.784 12.162ZM101.968 16.146L102.463 16.2209L102.464 16.208L101.968 16.146ZM100.864 21.378L100.385 21.2333L100.864 21.378ZM98.656 24.978L98.9984 25.3425L99.0041 25.3369L98.656 24.978ZM89.824 25.074L89.524 25.474L89.5256 25.4752L89.824 25.074ZM86.848 20.946L86.3815 21.126L86.3826 21.1288L86.848 20.946ZM86.416 9.08999L86.9031 9.20306L86.9053 9.19299L86.416 9.08999ZM88.048 4.57797L88.2601 4.12521L87.8498 3.93298L87.6182 4.32245L88.048 4.57797ZM93.376 7.07397L93.8116 7.31939L94.0762 6.84985L93.5881 6.62121L93.376 7.07397ZM92.128 18.114L91.6917 18.3583L92.128 18.114ZM95.536 18.018L95.0671 17.8443L95.536 18.018ZM96.448 13.89L95.9547 13.8078L95.9537 13.8146L96.448 13.89ZM97.6 8.70599L98.0777 8.85385L98.0808 8.84335L97.6 8.70599ZM99.76 5.20199L100.102 5.5664L99.76 5.20199ZM108.448 5.15399L108.753 4.75766L108.448 5.15399ZM111.376 9.37799L111.845 9.20514L111.843 9.20065L111.376 9.37799ZM111.884 15.906C111.884 18.0097 111.633 20.065 111.131 22.0727L112.101 22.3152C112.623 20.227 112.884 18.0902 112.884 15.906L111.884 15.906ZM111.133 22.0656C110.597 24.0831 109.943 25.6596 109.182 26.8152L110.018 27.3648C110.857 26.0884 111.547 24.4008 112.099 22.3224L111.133 22.0656ZM109.811 26.6365L104.435 24.1405L104.013 25.0475L109.389 27.5435L109.811 26.6365ZM104.645 24.8632C105.412 23.6631 106.037 22.2258 106.528 20.5591L105.568 20.2769C105.099 21.8742 104.508 23.2208 103.803 24.3248L104.645 24.8632ZM106.53 20.5504C106.989 18.8786 107.22 17.2341 107.22 15.618L106.22 15.618C106.22 17.1379 106.003 18.6934 105.566 20.2856L106.53 20.5504ZM107.22 15.618C107.22 14.0088 107.024 12.728 106.58 11.8322C106.355 11.3773 106.058 11.0054 105.676 10.7483C105.291 10.4889 104.849 10.366 104.368 10.366L104.368 11.366C104.671 11.366 104.915 11.4411 105.118 11.5777C105.324 11.7165 105.517 11.9387 105.684 12.2758C106.024 12.9639 106.22 14.0591 106.22 15.618L107.22 15.618ZM104.368 10.366C103.894 10.366 103.464 10.508 103.103 10.803C102.751 11.0917 102.496 11.5011 102.315 11.9883L103.253 12.3356C103.392 11.9589 103.561 11.7203 103.737 11.577C103.904 11.44 104.106 11.366 104.368 11.366L104.368 10.366ZM102.315 11.9883C101.974 12.9081 101.697 14.2828 101.472 16.084L102.464 16.208C102.687 14.4251 102.954 13.1438 103.253 12.3356L102.315 11.9883ZM101.474 16.0711C101.156 18.1696 100.792 19.8882 100.385 21.2333L101.343 21.5227C101.768 20.1157 102.14 18.3463 102.462 16.2209L101.474 16.0711ZM100.385 21.2333C99.9946 22.526 99.3044 23.6528 98.3079 24.619L99.0041 25.3369C100.12 24.2552 100.901 22.982 101.343 21.5227L100.385 21.2333ZM98.3136 24.6136C97.3787 25.4919 96.0138 25.966 94.144 25.966L94.144 26.966C96.1781 26.966 97.8213 26.4481 98.9983 25.3424L98.3136 24.6136ZM94.144 25.966C92.6138 25.966 91.2797 25.5333 90.1223 24.6728L89.5256 25.4752C90.8643 26.4706 92.4102 26.966 94.144 26.966L94.144 25.966ZM90.124 24.674C88.932 23.78 87.9904 22.4865 87.3134 20.7632L86.3826 21.1288C87.1136 22.9895 88.1559 24.448 89.524 25.474L90.124 24.674ZM87.3144 20.766C86.6376 19.0122 86.292 16.9318 86.292 14.514L85.292 14.514C85.292 17.0242 85.6504 19.2318 86.3815 21.126L87.3144 20.766ZM86.292 14.514C86.292 12.7284 86.4956 10.9583 86.903 9.20306L85.9289 8.97693C85.5044 10.8057 85.292 12.6516 85.292 14.514L86.292 14.514ZM86.9053 9.19299C87.2817 7.40506 87.8098 5.95691 88.4778 4.83352L87.6182 4.32245C86.8782 5.56704 86.3183 7.12692 85.9267 8.98697L86.9053 9.19299ZM87.8359 5.03076L93.1639 7.52676L93.5881 6.62121L88.2601 4.12521L87.8359 5.03076ZM92.9404 6.82855C91.6168 9.17785 90.956 11.7428 90.956 14.514L91.956 14.514C91.956 11.9092 92.5751 9.51413 93.8116 7.31939L92.9404 6.82855ZM90.956 14.514C90.956 16.1443 91.1814 17.4469 91.6917 18.3583L92.5642 17.8697C92.1786 17.181 91.956 16.0837 91.956 14.514L90.956 14.514ZM91.6917 18.3583C92.1973 19.261 92.9156 19.814 93.856 19.814L93.856 18.814C93.3884 18.814 92.9547 18.5669 92.5642 17.8697L91.6917 18.3583ZM93.856 19.814C94.3513 19.814 94.8026 19.6781 95.1814 19.3859C95.555 19.0977 95.822 18.6855 96.0049 18.1916L95.0671 17.8443C94.93 18.2145 94.757 18.4503 94.5706 18.5941C94.3894 18.7339 94.1607 18.814 93.856 18.814L93.856 19.814ZM96.0049 18.1916C96.3435 17.2774 96.6534 15.8592 96.9423 13.9654L95.9537 13.8146C95.6666 15.6967 95.3685 17.0306 95.0671 17.8443L96.0049 18.1916ZM96.9412 13.9722C97.2912 11.8722 97.6708 10.1683 98.0776 8.85382L97.1223 8.55813C96.6972 9.93167 96.3088 11.6837 95.9548 13.8078L96.9412 13.9722ZM98.0808 8.84335C98.439 7.58941 99.1096 6.49896 100.102 5.5664L99.4176 4.83755C98.2984 5.889 97.529 7.13458 97.1192 8.56863L98.0808 8.84335ZM100.102 5.5664C101.04 4.68536 102.375 4.21399 104.176 4.21399L104.176 3.21399C102.201 3.21399 100.592 3.73459 99.4176 4.83755L100.102 5.5664ZM104.176 4.21399C105.668 4.21399 106.984 4.65869 108.143 5.55029L108.753 4.75766C107.416 3.72927 105.884 3.21399 104.176 3.21399L104.176 4.21399ZM108.143 5.55029C109.301 6.44076 110.229 7.76358 110.908 9.55532L111.843 9.20065C111.115 7.28039 110.091 5.7872 108.753 4.75766L108.143 5.55029ZM110.907 9.55084C111.553 11.3057 111.884 13.4202 111.884 15.906L112.884 15.906C112.884 13.3358 112.543 11.0983 111.845 9.20514L110.907 9.55084Z" fill="white"/>
<path d="M3.3 307.276L11 307.276L11 308.453L5.786 312.699L11 312.699L11 314.118L3.3 314.118L3.3 312.941L8.514 308.695L3.3 308.695L3.3 307.276ZM8.096 299.163C8.19133 299.163 8.327 299.17 8.503 299.185L8.503 303.794C8.93567 303.713 9.28033 303.504 9.537 303.167C9.78633 302.822 9.911 302.397 9.911 301.891C9.911 301.246 9.69833 300.714 9.273 300.296L10.12 299.559C10.4353 299.823 10.6737 300.157 10.835 300.56C10.9963 300.963 11.077 301.418 11.077 301.924C11.077 302.569 10.9487 303.138 10.692 303.629C10.4353 304.12 10.0797 304.502 9.625 304.773C9.163 305.037 8.64233 305.169 8.063 305.169C7.491 305.169 6.97767 305.041 6.523 304.784C6.061 304.52 5.70167 304.157 5.445 303.695C5.18833 303.233 5.06 302.712 5.06 302.133C5.06 301.561 5.18833 301.051 5.445 300.604C5.69433 300.149 6.05 299.797 6.512 299.548C6.96667 299.291 7.49467 299.163 8.096 299.163ZM6.16 302.133C6.16 302.573 6.292 302.947 6.556 303.255C6.81267 303.556 7.15733 303.739 7.59 303.805L7.59 300.472C7.16467 300.531 6.82 300.71 6.556 301.011C6.292 301.312 6.16 301.686 6.16 302.133ZM11 293.604L8.965 295.111L11 296.629L11 298.147L8.019 295.859L5.126 298.048L5.126 296.519L7.051 295.078L5.126 293.637L5.126 292.152L7.997 294.352L11 292.053L11 293.604ZM10.681 286.847C10.813 287.008 10.912 287.206 10.978 287.441C11.044 287.668 11.077 287.91 11.077 288.167C11.077 288.812 10.9083 289.311 10.571 289.663C10.2337 290.015 9.74233 290.191 9.097 290.191L6.27 290.191L6.27 291.159L5.17 291.159L5.17 290.191L3.828 290.191L3.828 288.816L5.17 288.816L5.17 287.243L6.27 287.243L6.27 288.816L9.064 288.816C9.35 288.816 9.57 288.746 9.724 288.607C9.87067 288.468 9.944 288.266 9.944 288.002C9.944 287.694 9.86333 287.437 9.702 287.232L10.681 286.847ZM3.3 278.056C3.3 277.388 3.41 276.809 3.63 276.318C3.85 275.819 4.16533 275.438 4.576 275.174C4.98666 274.91 5.47433 274.778 6.039 274.778C6.59633 274.778 7.084 274.91 7.502 275.174C7.91266 275.438 8.228 275.819 8.448 276.318C8.668 276.809 8.778 277.388 8.778 278.056L8.778 279.794L11 279.794L11 281.224L3.3 281.224L3.3 278.056ZM7.568 278.122C7.568 277.498 7.436 277.025 7.172 276.703C6.908 276.38 6.53033 276.219 6.039 276.219C5.54766 276.219 5.17 276.38 4.906 276.703C4.642 277.025 4.51 277.498 4.51 278.122L4.51 279.794L7.568 279.794L7.568 278.122ZM5.984 271.566C5.368 271.17 5.06 270.474 5.06 269.476L6.369 269.476C6.347 269.594 6.336 269.7 6.336 269.795C6.336 270.331 6.49366 270.749 6.809 271.049C7.117 271.35 7.56433 271.5 8.151 271.5L11 271.5L11 272.875L5.126 272.875L5.126 271.566L5.984 271.566ZM11.077 265.064C11.077 265.658 10.9487 266.193 10.692 266.67C10.4353 267.146 10.0797 267.52 9.625 267.792C9.163 268.056 8.64233 268.188 8.063 268.188C7.48366 268.188 6.96666 268.056 6.512 267.792C6.05733 267.52 5.70166 267.146 5.445 266.67C5.18833 266.193 5.06 265.658 5.06 265.064C5.06 264.462 5.18833 263.923 5.445 263.447C5.70166 262.97 6.05733 262.6 6.512 262.336C6.96666 262.064 7.48366 261.929 8.063 261.929C8.64233 261.929 9.163 262.064 9.625 262.336C10.0797 262.6 10.4353 262.97 10.692 263.447C10.9487 263.923 11.077 264.462 11.077 265.064ZM9.9 265.064C9.9 264.558 9.73133 264.14 9.394 263.81C9.05666 263.48 8.613 263.315 8.063 263.315C7.513 263.315 7.06933 263.48 6.732 263.81C6.39466 264.14 6.226 264.558 6.226 265.064C6.226 265.57 6.39466 265.988 6.732 266.318C7.06933 266.64 7.513 266.802 8.063 266.802C8.613 266.802 9.05666 266.64 9.394 266.318C9.73133 265.988 9.9 265.57 9.9 265.064ZM13.211 260.559C13.211 261.138 13.0973 261.578 12.87 261.879L11.847 261.483C12.001 261.277 12.078 261.01 12.078 260.68C12.078 260.423 11.9973 260.229 11.836 260.097C11.682 259.957 11.451 259.888 11.143 259.888L5.126 259.888L5.126 258.513L11.11 258.513C11.7627 258.513 12.276 258.692 12.65 259.052C13.024 259.411 13.211 259.913 13.211 260.559ZM4.158 259.206C4.158 259.455 4.081 259.664 3.927 259.833C3.76566 260.001 3.56766 260.086 3.333 260.086C3.09833 260.086 2.904 260.001 2.75 259.833C2.58866 259.664 2.508 259.455 2.508 259.206C2.508 258.956 2.585 258.747 2.739 258.579C2.88566 258.41 3.07266 258.326 3.3 258.326C3.542 258.326 3.74733 258.41 3.916 258.579C4.07733 258.74 4.158 258.949 4.158 259.206ZM8.096 250.528C8.19133 250.528 8.327 250.535 8.503 250.55L8.503 255.159C8.93566 255.078 9.28033 254.869 9.537 254.532C9.78633 254.187 9.911 253.762 9.911 253.256C9.911 252.61 9.69833 252.079 9.273 251.661L10.12 250.924C10.4353 251.188 10.6737 251.521 10.835 251.925C10.9963 252.328 11.077 252.783 11.077 253.289C11.077 253.934 10.9487 254.502 10.692 254.994C10.4353 255.485 10.0797 255.866 9.625 256.138C9.163 256.402 8.64233 256.534 8.063 256.534C7.491 256.534 6.97766 256.405 6.523 256.149C6.061 255.885 5.70166 255.522 5.445 255.06C5.18833 254.598 5.06 254.077 5.06 253.498C5.06 252.926 5.18833 252.416 5.445 251.969C5.69433 251.514 6.05 251.162 6.512 250.913C6.96666 250.656 7.49466 250.528 8.096 250.528ZM6.16 253.498C6.16 253.938 6.292 254.312 6.556 254.62C6.81266 254.92 7.15733 255.104 7.59 255.17L7.59 251.837C7.16466 251.895 6.82 252.075 6.556 252.376C6.292 252.676 6.16 253.05 6.16 253.498ZM11.077 245.852C11.077 246.461 10.9487 247.007 10.692 247.491C10.4353 247.975 10.0797 248.353 9.625 248.624C9.163 248.895 8.64233 249.031 8.063 249.031C7.48366 249.031 6.96666 248.895 6.512 248.624C6.05733 248.353 5.70166 247.979 5.445 247.502C5.18833 247.018 5.06 246.468 5.06 245.852C5.06 245.273 5.17733 244.767 5.412 244.334C5.64666 243.894 5.984 243.564 6.424 243.344L7.04 244.4C6.76866 244.569 6.567 244.781 6.435 245.038C6.29566 245.287 6.226 245.562 6.226 245.863C6.226 246.376 6.39466 246.802 6.732 247.139C7.062 247.476 7.50566 247.645 8.063 247.645C8.62033 247.645 9.06766 247.48 9.405 247.15C9.735 246.813 9.9 246.384 9.9 245.863C9.9 245.562 9.834 245.287 9.702 245.038C9.56266 244.781 9.35733 244.569 9.086 244.4L9.702 243.344C10.142 243.571 10.483 243.905 10.725 244.345C10.9597 244.778 11.077 245.28 11.077 245.852ZM10.681 237.889C10.813 238.05 10.912 238.248 10.978 238.483C11.044 238.71 11.077 238.952 11.077 239.209C11.077 239.854 10.9083 240.353 10.571 240.705C10.2337 241.057 9.74233 241.233 9.097 241.233L6.27 241.233L6.27 242.201L5.17 242.201L5.17 241.233L3.828 241.233L3.828 239.858L5.17 239.858L5.17 238.285L6.27 238.285L6.27 239.858L9.064 239.858C9.35 239.858 9.57 239.788 9.724 239.649C9.87066 239.51 9.944 239.308 9.944 239.044C9.944 238.736 9.86333 238.479 9.702 238.274L10.681 237.889Z" fill="white"/>
</svg>
