<svg width="25" height="24" viewBox="0 0 25 24" fill="none" xmlns="http://www.w3.org/2000/svg">
<circle cx="12.7742" cy="12" r="12" fill="#0077B7"/>
<g clip-path="url(#clip0_1_1195)">
<path d="M18.5778 17.0349V17.0344H18.5805V13.0593C18.5805 11.1147 18.1619 9.6167 15.8885 9.6167C14.7956 9.6167 14.0622 10.2164 13.7627 10.785H13.7311V9.79825H11.5756V17.0344H13.8201V13.4513C13.8201 12.5079 13.9989 11.5957 15.1673 11.5957C16.3184 11.5957 16.3356 12.6723 16.3356 13.5119V17.0349H18.5778Z" fill="white"/>
<path d="M7.92091 9.79834H10.1681V17.0345H7.92091V9.79834Z" fill="white"/>
<path d="M9.0441 6.19336C8.32559 6.19336 7.74255 6.77639 7.74255 7.49491C7.74255 8.21342 8.32559 8.80865 9.0441 8.80865C9.76262 8.80865 10.3457 8.21342 10.3457 7.49491C10.3452 6.77639 9.76217 6.19336 9.0441 6.19336V6.19336Z" fill="white"/>
</g>
<defs>
<clipPath id="clip0_1_1195">
<rect width="10.8387" height="10.8387" fill="white" transform="translate(7.74255 6.19336)"/>
</clipPath>
</defs>
</svg>
