<svg width="16" height="13" viewBox="0 0 16 13" fill="none" xmlns="http://www.w3.org/2000/svg">
<path d="M5.264 6.012C5.864 6.276 6.332 6.672 6.668 7.2C7.004 7.728 7.172 8.352 7.172 9.072C7.172 10.104 6.848 10.944 6.2 11.592C5.552 12.216 4.724 12.528 3.716 12.528C2.708 12.528 1.868 12.204 1.196 11.556C0.548 10.908 0.224 10.08 0.224 9.072C0.224 8.592 0.284 8.112 0.404 7.632C0.524 7.152 0.788 6.432 1.196 5.472L3.284 0.287998H6.848L5.264 6.012ZM13.76 6.012C14.36 6.276 14.828 6.672 15.164 7.2C15.5 7.728 15.668 8.352 15.668 9.072C15.668 10.104 15.344 10.944 14.696 11.592C14.048 12.216 13.22 12.528 12.212 12.528C11.204 12.528 10.364 12.204 9.692 11.556C9.044 10.908 8.72 10.08 8.72 9.072C8.72 8.592 8.78 8.112 8.9 7.632C9.02 7.152 9.284 6.432 9.692 5.472L11.78 0.287998H15.344L13.76 6.012Z" fill="#080808"/>
</svg>
