<svg width="81" height="26" viewBox="0 0 81 26" fill="none" xmlns="http://www.w3.org/2000/svg">
<path d="M34.9035 22.9414H38.9073L38.8921 22.8501L38.3136 22.8044C38.1157 22.8044 37.9635 22.7892 37.8417 22.7739C37.7199 22.7587 37.6438 22.7435 37.5829 22.7131C37.522 22.6978 37.4763 22.6826 37.4763 22.6674C37.4611 22.6522 37.4611 22.6217 37.4611 22.5913L39.3793 13.5637H40.7494C41.267 13.6245 41.6476 13.7616 41.8607 14.0051C42.0739 14.2487 42.2413 14.7511 42.3631 15.5123L42.3936 15.695H42.4544L42.6828 13.4266H35.1928L34.4925 15.695H34.5686L34.6904 15.4971C35.071 14.8729 35.4211 14.401 35.7256 14.0965C36.0301 13.792 36.4107 13.6245 36.8522 13.5637H38.405L36.5172 22.5456C36.4868 22.6674 36.228 22.7587 35.7256 22.7892L34.9492 22.8501L34.9035 22.9414ZM46.2668 23.1241C46.7387 23.1241 47.3477 22.3934 48.0936 20.9319L48.0023 20.8862L46.8605 22.6217L46.1298 22.5304L47.302 19.6074C47.8348 18.283 48.1088 17.5066 48.1088 17.2934C48.1088 17.0499 48.0023 16.8367 47.8044 16.6236C47.6065 16.4105 47.4238 16.3039 47.2411 16.3039C46.8757 16.3039 46.5408 16.4714 46.2211 16.8063C45.9166 17.1108 45.5056 17.6436 44.9728 18.42C44.4399 19.2116 43.968 19.988 43.5722 20.7644L43.4809 20.734C43.968 19.5465 44.6987 17.2325 45.7035 13.8225L45.9928 12.8481L43.7244 13.1069L43.694 13.1983L44.9119 13.244C45.0184 13.244 45.0489 13.3657 44.988 13.5941L44.6683 14.7206C44.4552 15.4818 44.1659 16.4257 43.831 17.5522C43.4809 18.694 43.1764 19.6531 42.9328 20.4143L42.0651 22.911L42.8262 22.9871L43.3743 21.5408C43.9985 20.2012 44.6531 19.0746 45.3229 18.1612C45.9928 17.2478 46.4647 16.7911 46.7235 16.7911C46.8909 16.7911 47.028 16.852 47.1497 16.9433C47.2715 17.0499 47.3324 17.1717 47.3324 17.3239C47.3324 17.4761 47.0584 18.2373 46.5408 19.6074C46.419 19.9424 46.2516 20.3534 46.0384 20.8558C45.8253 21.3581 45.6731 21.754 45.5665 22.0432C45.4447 22.3325 45.399 22.4999 45.399 22.5456C45.399 22.6522 45.5056 22.7739 45.7187 22.911C45.9319 23.0632 46.1145 23.1241 46.2668 23.1241ZM50.3353 23.1241C51.1574 23.1241 51.9794 22.4086 52.8015 20.9623L52.695 20.9167C52.3296 21.5256 51.9947 21.9519 51.6902 22.1954C51.3857 22.4543 51.0356 22.576 50.6702 22.576C50.2744 22.576 49.9699 22.4086 49.7568 22.0737C49.5437 21.7387 49.4371 21.2973 49.4371 20.7492C49.4371 20.2773 49.5132 19.7749 49.6807 19.2268C50.9747 19.0289 51.9338 18.7701 52.5579 18.4504C53.1669 18.146 53.4866 17.7349 53.4866 17.2478C53.4866 16.9737 53.3496 16.7454 53.0908 16.5627C52.8167 16.38 52.497 16.2887 52.1165 16.2887C51.5684 16.2887 51.0204 16.5323 50.4723 16.989C49.9243 17.4609 49.4828 18.0698 49.1478 18.8006C48.7977 19.5313 48.6302 20.2773 48.6302 21.0232C48.6302 21.617 48.7825 22.1193 49.087 22.5151C49.3914 22.9262 49.8025 23.1241 50.3353 23.1241ZM49.772 19.0746L49.7416 19.0594C50.046 18.1612 50.4266 17.4761 50.9138 16.989C51.3096 16.6236 51.6445 16.4257 51.949 16.4257C52.1774 16.4257 52.36 16.5018 52.497 16.654C52.6188 16.8063 52.695 16.989 52.695 17.2021C52.695 17.7197 52.4818 18.1155 52.0708 18.3895C51.6597 18.6636 50.8986 18.8919 49.772 19.0746ZM55.7542 22.9414H62.4221L63.4117 20.3077L63.3051 20.2925L63.1985 20.4904C62.7571 21.2516 62.3308 21.8301 61.935 22.2107C61.5239 22.5913 60.9911 22.7892 60.3365 22.7892L58.0682 22.7283L59.9559 13.8225C59.9711 13.7007 60.2299 13.6245 60.7475 13.5789L61.661 13.518L61.7219 13.4266H57.7789L57.7942 13.518L58.1595 13.5637C58.5858 13.6245 58.8294 13.655 58.9055 13.6702C58.9816 13.7007 59.012 13.7311 59.012 13.7768L57.1548 22.5304C57.1243 22.6522 56.8655 22.7283 56.3631 22.7892L55.7999 22.8501L55.7542 22.9414ZM67.9079 23.1393C68.5016 23.1393 69.1714 22.4086 69.9022 20.9319L69.8108 20.8862L68.6995 22.6217L68.0144 22.5456L68.9279 19.6379L70.0696 16.3344L69.3085 16.2735L68.867 17.7349H68.8517C68.8517 16.8215 68.5625 16.3648 67.984 16.3648C67.5577 16.3648 67.1467 16.5779 66.7204 17.0042C66.0963 17.6284 65.5178 18.3895 65.0002 19.2877C64.4826 20.1859 64.2238 21.008 64.2238 21.754C64.2238 22.165 64.3303 22.4999 64.5739 22.7435C64.8023 22.9871 65.0915 23.1089 65.4264 23.1089C65.7918 23.1089 66.1572 22.8957 66.5378 22.439C66.9183 21.9975 67.4207 21.2364 68.0449 20.1707H68.0753C67.6491 21.2364 67.4512 21.891 67.4512 22.1346C67.4512 22.3934 67.4816 22.6217 67.573 22.8348C67.6643 23.048 67.7709 23.1393 67.9079 23.1393ZM65.8375 22.4847C65.6243 22.4847 65.4264 22.4086 65.2742 22.2259C65.122 22.0432 65.0458 21.7844 65.0458 21.419C65.0458 20.7644 65.2133 20.0032 65.5787 19.1355C65.9288 18.2678 66.3094 17.6284 66.7357 17.2021C67.0097 16.9281 67.2837 16.7911 67.5577 16.7911C67.8774 16.7911 68.1362 16.9433 68.3494 17.2173C68.5473 17.5066 68.6538 17.7958 68.6538 18.0851C68.6538 18.4504 68.532 18.8767 68.2885 19.3639C67.2533 21.4495 66.4312 22.4847 65.8375 22.4847ZM72.0525 23.1241C72.5397 23.1241 73.0116 22.9566 73.4379 22.5913C73.8641 22.2259 74.062 21.7996 74.062 21.2973C74.062 21.0385 73.9707 20.7644 73.8185 20.4752C73.6662 20.2012 73.3161 19.7901 72.768 19.2573C72.1286 18.6483 71.7937 18.1307 71.7937 17.7349C71.7785 17.3696 71.8851 17.0651 72.1286 16.8063C72.357 16.5475 72.6767 16.4105 73.0725 16.4105C73.4683 16.4105 73.8185 16.6084 74.1077 16.989C73.7728 17.0955 73.6053 17.2934 73.6053 17.5827C73.6053 17.7349 73.6358 17.8567 73.7271 17.9481C73.8185 18.0394 73.925 18.0851 74.0773 18.0851C74.2143 18.0851 74.3361 18.0394 74.4426 17.9176C74.5492 17.811 74.5949 17.6588 74.5949 17.4761C74.5796 17.1108 74.4426 16.8215 74.1838 16.6084C73.9098 16.3952 73.5444 16.2887 73.0725 16.2887C72.6158 16.2887 72.1743 16.4714 71.7785 16.8215C71.3674 17.1869 71.1695 17.5979 71.1848 18.0698C71.1848 18.3134 71.2457 18.5418 71.3674 18.7701C71.4892 19.0137 71.611 19.1964 71.7328 19.3334C71.8546 19.4856 72.0677 19.6835 72.3418 19.9576C72.3418 19.9728 72.4027 20.0337 72.5244 20.1555C72.6462 20.2773 72.7071 20.3534 72.7376 20.3838C72.768 20.4143 72.8289 20.4904 72.9203 20.597C73.0116 20.7035 73.0877 20.7797 73.1182 20.8405C73.1486 20.9014 73.1943 20.9928 73.2552 21.0841C73.3161 21.1755 73.3465 21.2668 73.377 21.3581C73.3922 21.4495 73.4074 21.5408 73.4074 21.6322C73.4074 21.9823 73.3008 22.302 73.0725 22.5913C72.8441 22.8805 72.5092 23.0175 72.0525 23.0175C71.5349 23.0175 71.0782 22.7892 70.6824 22.3172C70.8194 22.2716 70.9412 22.1954 71.0478 22.0737C71.1391 21.9671 71.2 21.8453 71.2 21.7083C71.2 21.5713 71.1543 21.4495 71.063 21.3581C70.9716 21.2668 70.8498 21.2059 70.7128 21.2059C70.5758 21.2059 70.454 21.2668 70.3627 21.3886C70.2561 21.5104 70.2105 21.6626 70.2105 21.8453C70.2105 22.2411 70.3779 22.5456 70.7433 22.7739C71.0934 23.0175 71.5349 23.1241 72.0525 23.1241ZM75.8162 23.1241C76.2881 23.1241 76.8819 22.3934 77.6126 20.9319L77.5212 20.8862L76.4251 22.6217L75.6183 22.5304L77.3081 16.9433H78.6478L78.7696 16.5323L77.4451 16.517L78.0845 14.4466H77.3386L76.6992 16.517L75.6183 16.5323L75.4813 16.9281L76.5622 16.9433L74.8876 22.4999C74.8419 22.6217 74.9485 22.7435 75.192 22.8957C75.4356 23.048 75.6487 23.1241 75.8162 23.1241ZM78.8804 23.1545C79.0631 23.1545 79.2153 23.0936 79.3371 22.9566C79.4589 22.8196 79.535 22.6522 79.535 22.4695C79.535 22.302 79.4741 22.1498 79.3524 22.0128C79.2306 21.891 79.0783 21.8149 78.8956 21.8149C78.6977 21.8149 78.5303 21.891 78.3933 22.0128C78.2563 22.1498 78.1954 22.302 78.1954 22.4695C78.1954 22.6522 78.2563 22.8196 78.3933 22.9566C78.5151 23.0936 78.6825 23.1545 78.8804 23.1545Z" fill="white"/>
<path d="M3.94546 10H5.74692L7.05361 2.62923H11.367L11.6461 1.11955H1.2052L0.926104 2.62923H5.25215L3.94546 10ZM11.2997 10H13.1011L13.4183 8.22391V8.24928C13.7862 6.16872 14.8899 4.81128 16.26 4.81128C17.4906 4.81128 17.8712 5.54709 17.5414 7.46273L17.0847 10H18.8861L19.3809 7.24706C19.863 4.48143 19.1906 3.47921 17.4018 3.45384C15.4862 3.45384 14.3571 4.58293 13.7862 6.27021H13.6847L14.8519 1.11955H12.8728L11.2997 10ZM23.9499 10.203C25.5483 10.203 26.2968 10.0507 27.6035 9.58135L27.8573 8.13511C27.0834 8.43958 26.373 8.83286 24.8252 8.83286C23.1506 8.83286 22.3894 8.41421 22.3641 7.37392H28.2632L28.4535 6.33364C28.7326 4.6083 27.4132 3.45384 25.1424 3.45384C22.8461 3.45384 21.0827 4.79859 20.7275 6.82841C20.3723 8.85823 21.6536 10.203 23.9499 10.203ZM22.4782 6.49857C22.8081 5.29336 23.5693 4.83665 24.9013 4.83665C26.2715 4.83665 26.8804 5.2553 26.7282 6.39707L22.4782 6.49857ZM33.0616 10H34.8631L35.5355 6.19409H41.7137L41.9548 4.78591H35.7765L36.1571 2.62923H42.4495L42.716 1.11955H34.6347L33.0616 10ZM44.8528 2.5658C45.5506 2.5658 46.0326 2.23595 46.1595 1.5382C46.2737 0.853137 45.8931 0.523292 45.208 0.523292C44.5356 0.523292 44.0409 0.853137 43.9267 1.5382C43.7998 2.23595 44.1677 2.5658 44.8528 2.5658ZM42.6581 10H44.4595L45.5759 3.65682H43.7745L42.6581 10ZM46.2913 10H48.0928L48.4861 7.75452C48.8793 5.78813 50.0972 4.96352 52.7106 4.96352L52.9643 3.45384C50.592 3.45384 49.4883 4.18965 48.7905 6.27021H48.6637L49.3868 3.65682H47.4077L46.2913 10ZM55.8855 10.203C58.1183 10.203 59.7294 9.58135 59.9832 8.10973C60.4653 5.34411 54.5788 6.76498 54.8071 5.5344C54.8833 5.09038 55.5683 4.87471 57.0653 4.87471C58.0168 4.87471 59.1205 5.01426 59.9832 5.20456L60.2369 3.80906C59.1712 3.59339 57.8899 3.45384 57.1287 3.45384C54.8959 3.45384 53.2721 4.1389 53.0184 5.55978C52.5363 8.31271 58.4481 6.75229 58.2198 8.10973C58.1183 8.64256 57.4078 8.80748 55.8474 8.80748C54.731 8.80748 53.8176 8.66793 52.8281 8.26197L52.5743 9.70821C53.5766 10.0127 54.9086 10.203 55.8855 10.203ZM62.8355 10.1269C63.5206 10.1269 64.0407 10.0507 64.5989 9.87314L64.7638 8.92166C62.9116 9.02315 62.9497 8.84554 63.2161 7.33587L63.6348 4.96352H65.4616L65.7026 3.65682H63.8631L64.1803 1.88073L62.5945 2.13446L62.3154 3.65682H61.1609L60.9199 4.96352H61.8333L61.3512 7.71646C61.0341 9.5306 61.1863 10.1269 62.8355 10.1269Z" fill="white"/>
</svg>
