<svg width="8" height="10" viewBox="0 0 8 10" fill="none" xmlns="http://www.w3.org/2000/svg">
<path d="M4.00053 0C2.00355 0 0.378906 1.62465 0.378906 3.6216C0.378906 6.09988 3.6199 9.73815 3.75789 9.89182C3.8875 10.0362 4.11379 10.0359 4.24316 9.89182C4.38115 9.73815 7.62215 6.09988 7.62215 3.6216C7.62211 1.62465 5.99748 0 4.00053 0ZM4.00053 5.44373C2.9958 5.44373 2.17842 4.62633 2.17842 3.6216C2.17842 2.61688 2.99582 1.79949 4.00053 1.79949C5.00523 1.79949 5.82262 2.61689 5.82262 3.62162C5.82262 4.62635 5.00523 5.44373 4.00053 5.44373Z" fill="white"/>
</svg>
